<?xml version="1.0" encoding="utf-8" standalone="no"?>
<!DOCTYPE svg PUBLIC "-//W3C//DTD SVG 1.1//EN"
  "http://www.w3.org/Graphics/SVG/1.1/DTD/svg11.dtd">
<!-- Created with matplotlib (https://matplotlib.org/) -->
<svg height="345.6pt" version="1.1" viewBox="0 0 460.8 345.6" width="460.8pt" xmlns="http://www.w3.org/2000/svg" xmlns:xlink="http://www.w3.org/1999/xlink">
 <metadata>
  <rdf:RDF xmlns:cc="http://creativecommons.org/ns#" xmlns:dc="http://purl.org/dc/elements/1.1/" xmlns:rdf="http://www.w3.org/1999/02/22-rdf-syntax-ns#">
   <cc:Work>
    <dc:type rdf:resource="http://purl.org/dc/dcmitype/StillImage"/>
    <dc:date>2021-04-01T15:27:50.791171</dc:date>
    <dc:format>image/svg+xml</dc:format>
    <dc:creator>
     <cc:Agent>
      <dc:title>Matplotlib v3.3.4, https://matplotlib.org/</dc:title>
     </cc:Agent>
    </dc:creator>
   </cc:Work>
  </rdf:RDF>
 </metadata>
 <defs>
  <style type="text/css">*{stroke-linecap:butt;stroke-linejoin:round;}</style>
 </defs>
 <g id="figure_1">
  <g id="patch_1">
   <path d="M 0 345.6 
L 460.8 345.6 
L 460.8 0 
L 0 0 
z
" style="fill:#ffffff;"/>
  </g>
  <g id="axes_1">
   <g id="line2d_1">
    <path clip-path="url(#pfc489625fe)" d="M 73.832727 295.488 
L 76.107584 295.383436 
L 78.382441 295.071011 
L 80.657297 294.554506 
L 83.257133 293.722448 
L 85.85697 292.645229 
L 88.456806 291.339871 
L 91.381622 289.624459 
L 94.631417 287.4524 
L 98.531171 284.549988 
L 103.405864 280.618292 
L 115.105127 271.065597 
L 119.004881 268.241034 
L 122.254676 266.153587 
L 125.179492 264.527852 
L 127.779328 263.311469 
L 130.379165 262.330484 
L 132.979001 261.600397 
L 135.253857 261.176557 
L 137.528714 260.958836 
L 139.803571 260.949869 
L 142.078428 261.149764 
L 144.353284 261.556103 
L 146.95312 262.266856 
L 149.552957 263.229514 
L 152.152793 264.428864 
L 155.077609 266.03732 
L 158.327404 268.108307 
L 161.902179 270.672044 
L 166.126912 273.985421 
L 174.2514 280.725864 
L 179.776052 285.151916 
L 183.675807 287.996619 
L 186.925602 290.105723 
L 189.850418 291.754272 
L 192.450254 292.993197 
L 195.05009 293.998483 
L 197.649926 294.754246 
L 199.924783 295.201362 
L 202.19964 295.44282 
L 204.474496 295.475697 
L 206.749353 295.299597 
L 209.02421 294.91665 
L 211.299066 294.33149 
L 213.898903 293.424323 
L 216.498739 292.276705 
L 219.423554 290.72094 
L 222.34837 288.915009 
L 225.598165 286.659078 
L 229.49792 283.682005 
L 235.022572 279.158489 
L 243.797019 271.967234 
L 247.696773 269.055604 
L 250.946568 266.873351 
L 253.871384 265.14703 
L 256.7962 263.681832 
L 259.396036 262.622456 
L 261.995872 261.809365 
L 264.270729 261.310142 
L 266.545586 261.015421 
L 268.820442 260.928769 
L 271.095299 261.051235 
L 273.370156 261.381336 
L 275.645012 261.915078 
L 278.244848 262.766028 
L 280.844685 263.860994 
L 283.444521 265.182674 
L 286.369337 266.914424 
L 289.619132 269.101742 
L 293.518886 272.017938 
L 298.718559 276.228904 
L 309.442883 285.002328 
L 313.342637 287.861841 
L 316.592432 289.986969 
L 319.517248 291.652458 
L 322.442064 293.049157 
L 325.0419 294.042313 
L 327.641736 294.785252 
L 329.916593 295.220739 
L 332.19145 295.450333 
L 334.466306 295.471256 
L 336.741163 295.283254 
L 339.01602 294.888603 
L 341.615856 294.190774 
L 344.215692 293.240382 
L 346.815528 292.052447 
L 349.740344 290.45559 
L 352.990139 288.395679 
L 356.564914 285.841609 
L 360.789648 282.535882 
L 368.264177 276.336909 
L 374.113808 271.614062 
L 378.013563 268.735197 
L 381.263358 266.588999 
L 384.188174 264.901155 
L 387.112989 263.479349 
L 389.712826 262.461972 
L 392.312662 261.693415 
L 394.587518 261.234688 
L 396.862375 260.981375 
L 398.487273 260.928 
L 398.487273 260.928 
" style="fill:none;stroke:#000000;stroke-linecap:square;stroke-width:0.9;"/>
   </g>
   <g id="line2d_2">
    <path clip-path="url(#pfc489625fe)" d="M 73.832727 243.648 
L 76.107584 243.543436 
L 78.382441 243.231011 
L 80.657297 242.714506 
L 83.257133 241.882448 
L 85.85697 240.805229 
L 88.456806 239.499871 
L 91.381622 237.784459 
L 94.631417 235.6124 
L 98.531171 232.709988 
L 103.405864 228.778292 
L 115.105127 219.225597 
L 119.004881 216.401034 
L 122.254676 214.313587 
L 125.179492 212.687852 
L 127.779328 211.471469 
L 130.379165 210.490484 
L 132.979001 209.760397 
L 135.253857 209.336557 
L 137.528714 209.118836 
L 139.803571 209.109869 
L 142.078428 209.309764 
L 144.353284 209.716103 
L 146.95312 210.426856 
L 149.552957 211.389514 
L 152.152793 212.588864 
L 155.077609 214.19732 
L 158.327404 216.268307 
L 161.902179 218.832044 
L 166.126912 222.145421 
L 174.2514 228.885864 
L 179.776052 233.311916 
L 183.675807 236.156619 
L 186.925602 238.265723 
L 189.850418 239.914272 
L 192.450254 241.153197 
L 195.05009 242.158483 
L 197.649926 242.914246 
L 199.924783 243.361362 
L 202.19964 243.60282 
L 204.474496 243.635697 
L 206.749353 243.459597 
L 209.02421 243.07665 
L 211.299066 242.49149 
L 213.898903 241.584323 
L 216.498739 240.436705 
L 219.423554 238.88094 
L 222.34837 237.075009 
L 225.598165 234.819078 
L 229.49792 231.842005 
L 235.022572 227.318489 
L 243.797019 220.127234 
L 247.696773 217.215604 
L 250.946568 215.033351 
L 253.871384 213.30703 
L 256.7962 211.841832 
L 259.396036 210.782456 
L 261.995872 209.969365 
L 264.270729 209.470142 
L 266.545586 209.175421 
L 268.820442 209.088769 
L 271.095299 209.211235 
L 273.370156 209.541336 
L 275.645012 210.075078 
L 278.244848 210.926028 
L 280.844685 212.020994 
L 283.444521 213.342674 
L 286.369337 215.074424 
L 289.619132 217.261742 
L 293.518886 220.177938 
L 298.718559 224.388904 
L 309.442883 233.162328 
L 313.342637 236.021841 
L 316.592432 238.146969 
L 319.517248 239.812458 
L 322.442064 241.209157 
L 325.0419 242.202313 
L 327.641736 242.945252 
L 329.916593 243.380739 
L 332.19145 243.610333 
L 334.466306 243.631256 
L 336.741163 243.443254 
L 339.01602 243.048603 
L 341.615856 242.350774 
L 344.215692 241.400382 
L 346.815528 240.212447 
L 349.740344 238.61559 
L 352.990139 236.555679 
L 356.564914 234.001609 
L 360.789648 230.695882 
L 368.264177 224.496909 
L 374.113808 219.774062 
L 378.013563 216.895197 
L 381.263358 214.748999 
L 384.188174 213.061155 
L 387.112989 211.639349 
L 389.712826 210.621972 
L 392.312662 209.853415 
L 394.587518 209.394688 
L 396.862375 209.141375 
L 398.487273 209.088 
L 398.487273 209.088 
" style="fill:none;stroke:#000000;stroke-linecap:square;stroke-width:0.9;"/>
   </g>
   <g id="line2d_3">
    <path clip-path="url(#pfc489625fe)" d="M 73.832727 223.367359 
L 85.53199 233.95282 
L 88.781785 236.536161 
L 91.706601 238.59854 
L 94.306437 240.179859 
L 96.906274 241.491809 
L 99.18113 242.398543 
L 101.455987 243.065821 
L 103.730844 243.483676 
L 106.0057 243.645864 
L 108.280557 243.549964 
L 110.555414 243.197408 
L 112.83027 242.593462 
L 115.105127 241.747149 
L 117.379984 240.671108 
L 119.97982 239.180818 
L 122.579656 237.440642 
L 125.504472 235.226679 
L 129.079247 232.229855 
L 133.953939 227.818405 
L 142.728387 219.835501 
L 146.303161 216.900248 
L 149.227977 214.753469 
L 151.827813 213.084296 
L 154.427649 211.674192 
L 156.702506 210.674622 
L 158.977363 209.909474 
L 161.252219 209.390174 
L 163.527076 209.124481 
L 165.801933 209.116364 
L 168.07679 209.365943 
L 170.351646 209.869491 
L 172.626503 210.619486 
L 174.90136 211.604724 
L 177.501196 212.999732 
L 180.101032 214.655459 
L 183.025848 216.789407 
L 186.275643 219.435144 
L 190.500377 223.177274 
L 202.849599 234.319555 
L 206.099394 236.865229 
L 209.02421 238.885104 
L 211.624046 240.422668 
L 214.223882 241.686127 
L 216.498739 242.54729 
L 218.773595 243.166774 
L 221.048452 243.535327 
L 223.323309 243.647442 
L 225.598165 243.501445 
L 227.873022 243.099517 
L 230.147879 242.447662 
L 232.422735 241.555616 
L 234.697592 240.436705 
L 237.297428 238.901742 
L 240.222244 236.884403 
L 243.472039 234.34099 
L 247.371794 230.975842 
L 253.871384 224.995825 
L 259.396036 220.01478 
L 262.970811 217.062467 
L 266.220606 214.673228 
L 268.820442 213.015049 
L 271.420278 211.61729 
L 273.695135 210.629441 
L 275.969992 209.876688 
L 278.244848 209.370274 
L 280.519705 209.117764 
L 282.794562 209.12293 
L 285.069419 209.385694 
L 287.344275 209.902132 
L 289.619132 210.664529 
L 291.893989 211.661496 
L 294.493825 213.068862 
L 297.093661 214.735598 
L 300.018477 216.880053 
L 303.268272 219.534831 
L 307.493006 223.284149 
L 319.517248 234.147521 
L 322.767043 236.7111 
L 325.691859 238.751121 
L 328.291695 240.309385 
L 330.891532 241.595754 
L 333.166388 242.478424 
L 335.441245 243.120445 
L 337.716102 243.512226 
L 339.990958 243.647915 
L 342.265815 243.525484 
L 344.540672 243.146763 
L 346.815528 242.51741 
L 349.090385 241.646824 
L 351.365242 240.54801 
L 353.965078 239.033963 
L 356.889894 237.037054 
L 360.139689 234.511905 
L 364.039443 231.161767 
L 370.214054 225.489865 
L 376.388665 219.913837 
L 379.96344 216.971074 
L 382.888256 214.816196 
L 385.488092 213.138517 
L 388.087928 211.718851 
L 390.362785 210.710193 
L 392.637641 209.935423 
L 394.912498 209.406116 
L 397.187355 209.130177 
L 398.487273 209.088 
L 398.487273 209.088 
" style="fill:none;stroke:#000000;stroke-linecap:square;stroke-width:0.9;"/>
   </g>
   <g id="line2d_4">
    <path clip-path="url(#pfc489625fe)" d="M 73.832727 191.808 
L 76.107584 191.703436 
L 78.382441 191.391011 
L 80.657297 190.874506 
L 83.257133 190.042448 
L 85.85697 188.965229 
L 88.456806 187.659871 
L 91.381622 185.944459 
L 94.631417 183.7724 
L 98.531171 180.869988 
L 103.405864 176.938292 
L 115.105127 167.385597 
L 119.004881 164.561034 
L 122.254676 162.473587 
L 125.179492 160.847852 
L 127.779328 159.631469 
L 130.379165 158.650484 
L 132.979001 157.920397 
L 135.253857 157.496557 
L 137.528714 157.278836 
L 139.803571 157.269869 
L 142.078428 157.469764 
L 144.353284 157.876103 
L 146.95312 158.586856 
L 149.552957 159.549514 
L 152.152793 160.748864 
L 155.077609 162.35732 
L 158.327404 164.428307 
L 161.902179 166.992044 
L 166.126912 170.305421 
L 174.2514 177.045864 
L 179.776052 181.471916 
L 183.675807 184.316619 
L 186.925602 186.425723 
L 189.850418 188.074272 
L 192.450254 189.313197 
L 195.05009 190.318483 
L 197.649926 191.074246 
L 199.924783 191.521362 
L 202.19964 191.76282 
L 204.474496 191.795697 
L 206.749353 191.619597 
L 209.02421 191.23665 
L 211.299066 190.65149 
L 213.898903 189.744323 
L 216.498739 188.596705 
L 219.423554 187.04094 
L 222.34837 185.235009 
L 225.598165 182.979078 
L 229.49792 180.002005 
L 235.022572 175.478489 
L 243.797019 168.287234 
L 247.696773 165.375604 
L 250.946568 163.193351 
L 253.871384 161.46703 
L 256.7962 160.001832 
L 259.396036 158.942456 
L 261.995872 158.129365 
L 264.270729 157.630142 
L 266.545586 157.335421 
L 268.820442 157.248769 
L 271.095299 157.371235 
L 273.370156 157.701336 
L 275.645012 158.235078 
L 278.244848 159.086028 
L 280.844685 160.180994 
L 283.444521 161.502674 
L 286.369337 163.234424 
L 289.619132 165.421742 
L 293.518886 168.337938 
L 298.718559 172.548904 
L 309.442883 181.322328 
L 313.342637 184.181841 
L 316.592432 186.306969 
L 319.517248 187.972458 
L 322.442064 189.369157 
L 325.0419 190.362313 
L 327.641736 191.105252 
L 329.916593 191.540739 
L 332.19145 191.770333 
L 334.466306 191.791256 
L 336.741163 191.603254 
L 339.01602 191.208603 
L 341.615856 190.510774 
L 344.215692 189.560382 
L 346.815528 188.372447 
L 349.740344 186.77559 
L 352.990139 184.715679 
L 356.564914 182.161609 
L 360.789648 178.855882 
L 368.264177 172.656909 
L 374.113808 167.934062 
L 378.013563 165.055197 
L 381.263358 162.908999 
L 384.188174 161.221155 
L 387.112989 159.799349 
L 389.712826 158.781972 
L 392.312662 158.013415 
L 394.587518 157.554688 
L 396.862375 157.301375 
L 398.487273 157.248 
L 398.487273 157.248 
" style="fill:none;stroke:#000000;stroke-linecap:square;stroke-width:0.9;"/>
   </g>
   <g id="line2d_5">
    <path clip-path="url(#pfc489625fe)" d="M 73.832727 171.527359 
L 85.53199 182.11282 
L 88.781785 184.696161 
L 91.706601 186.75854 
L 94.306437 188.339859 
L 96.906274 189.651809 
L 99.18113 190.558543 
L 101.455987 191.225821 
L 103.730844 191.643676 
L 106.0057 191.805864 
L 108.280557 191.709964 
L 110.555414 191.357408 
L 112.83027 190.753462 
L 115.105127 189.907149 
L 117.379984 188.831108 
L 119.97982 187.340818 
L 122.579656 185.600642 
L 125.504472 183.386679 
L 129.079247 180.389855 
L 133.953939 175.978405 
L 142.728387 167.995501 
L 146.303161 165.060248 
L 149.227977 162.913469 
L 151.827813 161.244296 
L 154.427649 159.834192 
L 156.702506 158.834622 
L 158.977363 158.069474 
L 161.252219 157.550174 
L 163.527076 157.284481 
L 165.801933 157.276364 
L 168.07679 157.525943 
L 170.351646 158.029491 
L 172.626503 158.779486 
L 174.90136 159.764724 
L 177.501196 161.159732 
L 180.101032 162.815459 
L 183.025848 164.949407 
L 186.275643 167.595144 
L 190.500377 171.337274 
L 202.849599 182.479555 
L 206.099394 185.025229 
L 209.02421 187.045104 
L 211.624046 188.582668 
L 214.223882 189.846127 
L 216.498739 190.70729 
L 218.773595 191.326774 
L 221.048452 191.695327 
L 223.323309 191.807442 
L 225.598165 191.661445 
L 227.873022 191.259517 
L 230.147879 190.607662 
L 232.422735 189.715616 
L 234.697592 188.596705 
L 237.297428 187.061742 
L 240.222244 185.044403 
L 243.472039 182.50099 
L 247.371794 179.135842 
L 253.871384 173.155825 
L 259.396036 168.17478 
L 262.970811 165.222467 
L 266.220606 162.833228 
L 268.820442 161.175049 
L 271.420278 159.77729 
L 273.695135 158.789441 
L 275.969992 158.036688 
L 278.244848 157.530274 
L 280.519705 157.277764 
L 282.794562 157.28293 
L 285.069419 157.545694 
L 287.344275 158.062132 
L 289.619132 158.824529 
L 291.893989 159.821496 
L 294.493825 161.228862 
L 297.093661 162.895598 
L 300.018477 165.040053 
L 303.268272 167.694831 
L 307.493006 171.444149 
L 319.517248 182.307521 
L 322.767043 184.8711 
L 325.691859 186.911121 
L 328.291695 188.469385 
L 330.891532 189.755754 
L 333.166388 190.638424 
L 335.441245 191.280445 
L 337.716102 191.672226 
L 339.990958 191.807915 
L 342.265815 191.685484 
L 344.540672 191.306763 
L 346.815528 190.67741 
L 349.090385 189.806824 
L 351.365242 188.70801 
L 353.965078 187.193963 
L 356.889894 185.197054 
L 360.139689 182.671905 
L 364.039443 179.321767 
L 370.214054 173.649865 
L 376.388665 168.073837 
L 379.96344 165.131074 
L 382.888256 162.976196 
L 385.488092 161.298517 
L 388.087928 159.878851 
L 390.362785 158.870193 
L 392.637641 158.095423 
L 394.912498 157.566116 
L 397.187355 157.290177 
L 398.487273 157.248 
L 398.487273 157.248 
" style="fill:none;stroke:#000000;stroke-linecap:square;stroke-width:0.9;"/>
   </g>
   <g id="line2d_6">
    <path clip-path="url(#pfc489625fe)" d="M 73.832727 162.309195 
L 76.107584 160.748864 
L 78.382441 159.448946 
L 80.332318 158.560763 
L 82.282195 157.894379 
L 84.232072 157.459049 
L 86.181949 157.26082 
L 88.131826 157.302447 
L 90.081704 157.583351 
L 92.031581 158.099631 
L 93.981458 158.844113 
L 95.931335 159.806458 
L 98.206192 161.186553 
L 100.481048 162.818789 
L 103.080885 164.953177 
L 106.0057 167.633879 
L 109.905455 171.527359 
L 120.304799 182.11282 
L 123.554595 184.998831 
L 126.154431 187.022186 
L 128.429287 188.541275 
L 130.704144 189.795527 
L 132.654021 190.641697 
L 134.603898 191.264035 
L 136.553776 191.653896 
L 138.503653 191.805864 
L 140.45353 191.717828 
L 142.403407 191.391011 
L 144.353284 190.829954 
L 146.303161 190.042448 
L 148.578018 188.85225 
L 150.852875 187.391336 
L 153.452711 185.425867 
L 156.377527 182.896003 
L 159.627322 179.782468 
L 164.826994 174.432904 
L 171.001605 168.135494 
L 174.2514 165.123475 
L 177.176216 162.719244 
L 179.776052 160.889456 
L 182.050909 159.563081 
L 184.325766 158.519528 
L 186.275643 157.865261 
L 188.22552 157.442452 
L 190.175397 157.256976 
L 192.125274 157.311409 
L 194.075152 157.604994 
L 196.025029 158.133654 
L 197.974906 158.890044 
L 199.924783 159.863659 
L 202.19964 161.255888 
L 204.474496 162.898947 
L 207.074333 165.043838 
L 210.324128 168.047241 
L 214.548862 172.306184 
L 223.648288 181.596101 
L 226.898084 184.539307 
L 229.49792 186.621288 
L 231.772776 188.199844 
L 234.047633 189.520015 
L 235.99751 190.426883 
L 237.947387 191.112902 
L 239.897265 191.568542 
L 241.847142 191.787476 
L 243.797019 191.766662 
L 245.746896 191.506388 
L 247.696773 191.01027 
L 249.64665 190.2852 
L 251.596527 189.34125 
L 253.871384 187.980988 
L 256.146241 186.366478 
L 258.746077 184.249338 
L 261.670893 181.583702 
L 265.570647 177.702406 
L 276.294971 166.79704 
L 279.219787 164.198206 
L 281.819623 162.156466 
L 284.09448 160.61879 
L 286.369337 159.343985 
L 288.319214 158.478926 
L 290.269091 157.836802 
L 292.218968 157.426532 
L 294.168845 157.253815 
L 296.118722 157.321051 
L 298.0686 157.627306 
L 300.018477 158.168325 
L 301.968354 158.936594 
L 303.918231 159.92144 
L 306.193088 161.325747 
L 308.467944 162.979564 
L 311.067781 165.134875 
L 314.317576 168.148118 
L 318.54231 172.414008 
L 327.316757 181.38473 
L 330.566552 184.350178 
L 333.166388 186.455247 
L 335.766224 188.266039 
L 338.041081 189.573763 
L 339.990958 190.469144 
L 341.940835 191.143088 
L 343.890713 191.586236 
L 345.84059 191.79243 
L 347.790467 191.758808 
L 349.740344 191.485835 
L 351.690221 190.977304 
L 353.640098 190.240279 
L 355.589975 189.284997 
L 357.864832 187.912513 
L 360.139689 186.287074 
L 362.739525 184.159294 
L 365.664341 181.484354 
L 369.564095 177.595512 
L 380.288419 166.699995 
L 383.213235 164.111285 
L 385.813071 162.080834 
L 388.087928 160.554577 
L 390.362785 159.292405 
L 392.312662 158.438959 
L 394.262539 157.809003 
L 396.212416 157.411288 
L 398.162293 157.251338 
L 398.487273 157.248 
L 398.487273 157.248 
" style="fill:none;stroke:#000000;stroke-linecap:square;stroke-width:0.9;"/>
   </g>
   <g id="line2d_7">
    <path clip-path="url(#pfc489625fe)" d="M 73.832727 139.968 
L 76.107584 139.863436 
L 78.382441 139.551011 
L 80.657297 139.034506 
L 83.257133 138.202448 
L 85.85697 137.125229 
L 88.456806 135.819871 
L 91.381622 134.104459 
L 94.631417 131.9324 
L 98.531171 129.029988 
L 103.405864 125.098292 
L 115.105127 115.545597 
L 119.004881 112.721034 
L 122.254676 110.633587 
L 125.179492 109.007852 
L 127.779328 107.791469 
L 130.379165 106.810484 
L 132.979001 106.080397 
L 135.253857 105.656557 
L 137.528714 105.438836 
L 139.803571 105.429869 
L 142.078428 105.629764 
L 144.353284 106.036103 
L 146.95312 106.746856 
L 149.552957 107.709514 
L 152.152793 108.908864 
L 155.077609 110.51732 
L 158.327404 112.588307 
L 161.902179 115.152044 
L 166.126912 118.465421 
L 174.2514 125.205864 
L 179.776052 129.631916 
L 183.675807 132.476619 
L 186.925602 134.585723 
L 189.850418 136.234272 
L 192.450254 137.473197 
L 195.05009 138.478483 
L 197.649926 139.234246 
L 199.924783 139.681362 
L 202.19964 139.92282 
L 204.474496 139.955697 
L 206.749353 139.779597 
L 209.02421 139.39665 
L 211.299066 138.81149 
L 213.898903 137.904323 
L 216.498739 136.756705 
L 219.423554 135.20094 
L 222.34837 133.395009 
L 225.598165 131.139078 
L 229.49792 128.162005 
L 235.022572 123.638489 
L 243.797019 116.447234 
L 247.696773 113.535604 
L 250.946568 111.353351 
L 253.871384 109.62703 
L 256.7962 108.161832 
L 259.396036 107.102456 
L 261.995872 106.289365 
L 264.270729 105.790142 
L 266.545586 105.495421 
L 268.820442 105.408769 
L 271.095299 105.531235 
L 273.370156 105.861336 
L 275.645012 106.395078 
L 278.244848 107.246028 
L 280.844685 108.340994 
L 283.444521 109.662674 
L 286.369337 111.394424 
L 289.619132 113.581742 
L 293.518886 116.497938 
L 298.718559 120.708904 
L 309.442883 129.482328 
L 313.342637 132.341841 
L 316.592432 134.466969 
L 319.517248 136.132458 
L 322.442064 137.529157 
L 325.0419 138.522313 
L 327.641736 139.265252 
L 329.916593 139.700739 
L 332.19145 139.930333 
L 334.466306 139.951256 
L 336.741163 139.763254 
L 339.01602 139.368603 
L 341.615856 138.670774 
L 344.215692 137.720382 
L 346.815528 136.532447 
L 349.740344 134.93559 
L 352.990139 132.875679 
L 356.564914 130.321609 
L 360.789648 127.015882 
L 368.264177 120.816909 
L 374.113808 116.094062 
L 378.013563 113.215197 
L 381.263358 111.068999 
L 384.188174 109.381155 
L 387.112989 107.959349 
L 389.712826 106.941972 
L 392.312662 106.173415 
L 394.587518 105.714688 
L 396.862375 105.461375 
L 398.487273 105.408 
L 398.487273 105.408 
" style="fill:none;stroke:#000000;stroke-linecap:square;stroke-width:0.9;"/>
   </g>
   <g id="line2d_8">
    <path clip-path="url(#pfc489625fe)" d="M 73.832727 119.687359 
L 85.53199 130.27282 
L 88.781785 132.856161 
L 91.706601 134.91854 
L 94.306437 136.499859 
L 96.906274 137.811809 
L 99.18113 138.718543 
L 101.455987 139.385821 
L 103.730844 139.803676 
L 106.0057 139.965864 
L 108.280557 139.869964 
L 110.555414 139.517408 
L 112.83027 138.913462 
L 115.105127 138.067149 
L 117.379984 136.991108 
L 119.97982 135.500818 
L 122.579656 133.760642 
L 125.504472 131.546679 
L 129.079247 128.549855 
L 133.953939 124.138405 
L 142.728387 116.155501 
L 146.303161 113.220248 
L 149.227977 111.073469 
L 151.827813 109.404296 
L 154.427649 107.994192 
L 156.702506 106.994622 
L 158.977363 106.229474 
L 161.252219 105.710174 
L 163.527076 105.444481 
L 165.801933 105.436364 
L 168.07679 105.685943 
L 170.351646 106.189491 
L 172.626503 106.939486 
L 174.90136 107.924724 
L 177.501196 109.319732 
L 180.101032 110.975459 
L 183.025848 113.109407 
L 186.275643 115.755144 
L 190.500377 119.497274 
L 202.849599 130.639555 
L 206.099394 133.185229 
L 209.02421 135.205104 
L 211.624046 136.742668 
L 214.223882 138.006127 
L 216.498739 138.86729 
L 218.773595 139.486774 
L 221.048452 139.855327 
L 223.323309 139.967442 
L 225.598165 139.821445 
L 227.873022 139.419517 
L 230.147879 138.767662 
L 232.422735 137.875616 
L 234.697592 136.756705 
L 237.297428 135.221742 
L 240.222244 133.204403 
L 243.472039 130.66099 
L 247.371794 127.295842 
L 253.871384 121.315825 
L 259.396036 116.33478 
L 262.970811 113.382467 
L 266.220606 110.993228 
L 268.820442 109.335049 
L 271.420278 107.93729 
L 273.695135 106.949441 
L 275.969992 106.196688 
L 278.244848 105.690274 
L 280.519705 105.437764 
L 282.794562 105.44293 
L 285.069419 105.705694 
L 287.344275 106.222132 
L 289.619132 106.984529 
L 291.893989 107.981496 
L 294.493825 109.388862 
L 297.093661 111.055598 
L 300.018477 113.200053 
L 303.268272 115.854831 
L 307.493006 119.604149 
L 319.517248 130.467521 
L 322.767043 133.0311 
L 325.691859 135.071121 
L 328.291695 136.629385 
L 330.891532 137.915754 
L 333.166388 138.798424 
L 335.441245 139.440445 
L 337.716102 139.832226 
L 339.990958 139.967915 
L 342.265815 139.845484 
L 344.540672 139.466763 
L 346.815528 138.83741 
L 349.090385 137.966824 
L 351.365242 136.86801 
L 353.965078 135.353963 
L 356.889894 133.357054 
L 360.139689 130.831905 
L 364.039443 127.481767 
L 370.214054 121.809865 
L 376.388665 116.233837 
L 379.96344 113.291074 
L 382.888256 111.136196 
L 385.488092 109.458517 
L 388.087928 108.038851 
L 390.362785 107.030193 
L 392.637641 106.255423 
L 394.912498 105.726116 
L 397.187355 105.450177 
L 398.487273 105.408 
L 398.487273 105.408 
" style="fill:none;stroke:#000000;stroke-linecap:square;stroke-width:0.9;"/>
   </g>
   <g id="line2d_9">
    <path clip-path="url(#pfc489625fe)" d="M 73.832727 110.469195 
L 76.107584 108.908864 
L 78.382441 107.608946 
L 80.332318 106.720763 
L 82.282195 106.054379 
L 84.232072 105.619049 
L 86.181949 105.42082 
L 88.131826 105.462447 
L 90.081704 105.743351 
L 92.031581 106.259631 
L 93.981458 107.004113 
L 95.931335 107.966458 
L 98.206192 109.346553 
L 100.481048 110.978789 
L 103.080885 113.113177 
L 106.0057 115.793879 
L 109.905455 119.687359 
L 120.304799 130.27282 
L 123.554595 133.158831 
L 126.154431 135.182186 
L 128.429287 136.701275 
L 130.704144 137.955527 
L 132.654021 138.801697 
L 134.603898 139.424035 
L 136.553776 139.813896 
L 138.503653 139.965864 
L 140.45353 139.877828 
L 142.403407 139.551011 
L 144.353284 138.989954 
L 146.303161 138.202448 
L 148.578018 137.01225 
L 150.852875 135.551336 
L 153.452711 133.585867 
L 156.377527 131.056003 
L 159.627322 127.942468 
L 164.826994 122.592904 
L 171.001605 116.295494 
L 174.2514 113.283475 
L 177.176216 110.879244 
L 179.776052 109.049456 
L 182.050909 107.723081 
L 184.325766 106.679528 
L 186.275643 106.025261 
L 188.22552 105.602452 
L 190.175397 105.416976 
L 192.125274 105.471409 
L 194.075152 105.764994 
L 196.025029 106.293654 
L 197.974906 107.050044 
L 199.924783 108.023659 
L 202.19964 109.415888 
L 204.474496 111.058947 
L 207.074333 113.203838 
L 210.324128 116.207241 
L 214.548862 120.466184 
L 223.648288 129.756101 
L 226.898084 132.699307 
L 229.49792 134.781288 
L 231.772776 136.359844 
L 234.047633 137.680015 
L 235.99751 138.586883 
L 237.947387 139.272902 
L 239.897265 139.728542 
L 241.847142 139.947476 
L 243.797019 139.926662 
L 245.746896 139.666388 
L 247.696773 139.17027 
L 249.64665 138.4452 
L 251.596527 137.50125 
L 253.871384 136.140988 
L 256.146241 134.526478 
L 258.746077 132.409338 
L 261.670893 129.743702 
L 265.570647 125.862406 
L 276.294971 114.95704 
L 279.219787 112.358206 
L 281.819623 110.316466 
L 284.09448 108.77879 
L 286.369337 107.503985 
L 288.319214 106.638926 
L 290.269091 105.996802 
L 292.218968 105.586532 
L 294.168845 105.413815 
L 296.118722 105.481051 
L 298.0686 105.787306 
L 300.018477 106.328325 
L 301.968354 107.096594 
L 303.918231 108.08144 
L 306.193088 109.485747 
L 308.467944 111.139564 
L 311.067781 113.294875 
L 314.317576 116.308118 
L 318.54231 120.574008 
L 327.316757 129.54473 
L 330.566552 132.510178 
L 333.166388 134.615247 
L 335.766224 136.426039 
L 338.041081 137.733763 
L 339.990958 138.629144 
L 341.940835 139.303088 
L 343.890713 139.746236 
L 345.84059 139.95243 
L 347.790467 139.918808 
L 349.740344 139.645835 
L 351.690221 139.137304 
L 353.640098 138.400279 
L 355.589975 137.444997 
L 357.864832 136.072513 
L 360.139689 134.447074 
L 362.739525 132.319294 
L 365.664341 129.644354 
L 369.564095 125.755512 
L 380.288419 114.859995 
L 383.213235 112.271285 
L 385.813071 110.240834 
L 388.087928 108.714577 
L 390.362785 107.452405 
L 392.312662 106.598959 
L 394.262539 105.969003 
L 396.212416 105.571288 
L 398.162293 105.411338 
L 398.487273 105.408 
L 398.487273 105.408 
" style="fill:none;stroke:#000000;stroke-linecap:square;stroke-width:0.9;"/>
   </g>
   <g id="line2d_10">
    <path clip-path="url(#pfc489625fe)" d="M 73.832727 138.256742 
L 75.782604 139.122976 
L 77.407502 139.617647 
L 79.0324 139.898991 
L 80.657297 139.963465 
L 82.282195 139.810254 
L 83.907093 139.441291 
L 85.53199 138.861223 
L 87.481867 137.896959 
L 89.431744 136.656854 
L 91.381622 135.163401 
L 93.656478 133.137204 
L 96.256314 130.509083 
L 99.50611 126.880461 
L 111.205373 113.456721 
L 113.805209 110.994498 
L 116.080066 109.146549 
L 118.029943 107.826999 
L 119.97982 106.776978 
L 121.604717 106.121746 
L 123.229615 105.675261 
L 124.854513 105.443149 
L 126.47941 105.428335 
L 128.104308 105.631006 
L 129.729206 106.048607 
L 131.354103 106.675877 
L 133.30398 107.694055 
L 135.253857 108.984173 
L 137.203735 110.522832 
L 139.478591 112.594607 
L 142.078428 115.264012 
L 145.328223 118.926137 
L 156.052547 131.301094 
L 158.652383 133.839908 
L 160.92724 135.76928 
L 162.877117 137.167742 
L 164.826994 138.303589 
L 166.776871 139.156222 
L 168.401769 139.639086 
L 170.026667 139.908354 
L 171.651564 139.960633 
L 173.276462 139.795264 
L 174.90136 139.414331 
L 176.526257 138.822633 
L 178.476134 137.845067 
L 180.426011 136.592602 
L 182.375889 135.087954 
L 184.650745 133.050438 
L 187.250581 130.412016 
L 190.500377 126.774944 
L 201.87466 113.694166 
L 204.474496 111.201777 
L 206.749353 109.321919 
L 208.69923 107.971542 
L 210.649107 106.888072 
L 212.598984 106.091161 
L 214.223882 105.656557 
L 215.84878 105.436562 
L 217.473677 105.433948 
L 219.098575 105.648747 
L 220.723473 106.078254 
L 222.34837 106.717056 
L 224.298247 107.748375 
L 226.248124 109.050648 
L 228.522981 110.880661 
L 230.797838 113.00199 
L 233.722654 116.072541 
L 237.297428 120.177817 
L 245.746896 130.020732 
L 248.671712 133.013126 
L 250.946568 135.055469 
L 253.221425 136.792674 
L 255.171302 138.006127 
L 257.121179 138.94176 
L 258.746077 139.496829 
L 260.370975 139.840095 
L 261.995872 139.967231 
L 263.62077 139.876636 
L 265.245667 139.569452 
L 266.870565 139.049548 
L 268.495463 138.323478 
L 270.44534 137.193109 
L 272.395217 135.799667 
L 274.670074 133.875447 
L 277.26991 131.341442 
L 280.194726 128.162005 
L 284.744439 122.823851 
L 290.269091 116.374907 
L 293.193907 113.273708 
L 295.793743 110.835392 
L 298.0686 109.012596 
L 300.018477 107.717262 
L 301.968354 106.693448 
L 303.593251 106.061232 
L 305.218149 105.638527 
L 306.843047 105.430657 
L 308.467944 105.440243 
L 310.092842 105.667163 
L 311.71774 106.108558 
L 313.342637 106.758867 
L 315.292514 107.803285 
L 317.242391 109.117663 
L 319.517248 110.960247 
L 321.792105 113.092184 
L 324.716921 116.173073 
L 328.616675 120.670349 
L 336.416183 129.766726 
L 339.340999 132.787693 
L 341.615856 134.85868 
L 343.890713 136.629385 
L 345.84059 137.874793 
L 347.790467 138.844763 
L 349.415364 139.429818 
L 351.040262 139.803913 
L 352.66516 139.962335 
L 354.290057 139.903087 
L 355.914955 139.626917 
L 357.539853 139.137304 
L 359.16475 138.440417 
L 361.114627 137.343094 
L 363.064505 135.979976 
L 365.339361 134.086966 
L 367.939197 131.582201 
L 370.864013 128.426353 
L 375.088747 123.491182 
L 381.263358 116.273863 
L 384.188174 113.182758 
L 386.78801 110.756541 
L 389.062867 108.94643 
L 391.012744 107.663281 
L 392.962621 106.652631 
L 394.587518 106.031962 
L 396.212416 105.621171 
L 397.837314 105.425435 
L 398.487273 105.408 
L 398.487273 105.408 
" style="fill:none;stroke:#000000;stroke-linecap:square;stroke-width:0.9;"/>
   </g>
   <g id="line2d_11">
    <path clip-path="url(#pfc489625fe)" d="M 73.832727 88.128 
L 76.107584 88.023436 
L 78.382441 87.711011 
L 80.657297 87.194506 
L 83.257133 86.362448 
L 85.85697 85.285229 
L 88.456806 83.979871 
L 91.381622 82.264459 
L 94.631417 80.0924 
L 98.531171 77.189988 
L 103.405864 73.258292 
L 115.105127 63.705597 
L 119.004881 60.881034 
L 122.254676 58.793587 
L 125.179492 57.167852 
L 127.779328 55.951469 
L 130.379165 54.970484 
L 132.979001 54.240397 
L 135.253857 53.816557 
L 137.528714 53.598836 
L 139.803571 53.589869 
L 142.078428 53.789764 
L 144.353284 54.196103 
L 146.95312 54.906856 
L 149.552957 55.869514 
L 152.152793 57.068864 
L 155.077609 58.67732 
L 158.327404 60.748307 
L 161.902179 63.312044 
L 166.126912 66.625421 
L 174.2514 73.365864 
L 179.776052 77.791916 
L 183.675807 80.636619 
L 186.925602 82.745723 
L 189.850418 84.394272 
L 192.450254 85.633197 
L 195.05009 86.638483 
L 197.649926 87.394246 
L 199.924783 87.841362 
L 202.19964 88.08282 
L 204.474496 88.115697 
L 206.749353 87.939597 
L 209.02421 87.55665 
L 211.299066 86.97149 
L 213.898903 86.064323 
L 216.498739 84.916705 
L 219.423554 83.36094 
L 222.34837 81.555009 
L 225.598165 79.299078 
L 229.49792 76.322005 
L 235.022572 71.798489 
L 243.797019 64.607234 
L 247.696773 61.695604 
L 250.946568 59.513351 
L 253.871384 57.78703 
L 256.7962 56.321832 
L 259.396036 55.262456 
L 261.995872 54.449365 
L 264.270729 53.950142 
L 266.545586 53.655421 
L 268.820442 53.568769 
L 271.095299 53.691235 
L 273.370156 54.021336 
L 275.645012 54.555078 
L 278.244848 55.406028 
L 280.844685 56.500994 
L 283.444521 57.822674 
L 286.369337 59.554424 
L 289.619132 61.741742 
L 293.518886 64.657938 
L 298.718559 68.868904 
L 309.442883 77.642328 
L 313.342637 80.501841 
L 316.592432 82.626969 
L 319.517248 84.292458 
L 322.442064 85.689157 
L 325.0419 86.682313 
L 327.641736 87.425252 
L 329.916593 87.860739 
L 332.19145 88.090333 
L 334.466306 88.111256 
L 336.741163 87.923254 
L 339.01602 87.528603 
L 341.615856 86.830774 
L 344.215692 85.880382 
L 346.815528 84.692447 
L 349.740344 83.09559 
L 352.990139 81.035679 
L 356.564914 78.481609 
L 360.789648 75.175882 
L 368.264177 68.976909 
L 374.113808 64.254062 
L 378.013563 61.375197 
L 381.263358 59.228999 
L 384.188174 57.541155 
L 387.112989 56.119349 
L 389.712826 55.101972 
L 392.312662 54.333415 
L 394.587518 53.874688 
L 396.862375 53.621375 
L 398.487273 53.568 
L 398.487273 53.568 
" style="fill:none;stroke:#000000;stroke-linecap:square;stroke-width:0.9;"/>
   </g>
   <g id="line2d_12">
    <path clip-path="url(#pfc489625fe)" d="M 73.832727 67.847359 
L 85.53199 78.43282 
L 88.781785 81.016161 
L 91.706601 83.07854 
L 94.306437 84.659859 
L 96.906274 85.971809 
L 99.18113 86.878543 
L 101.455987 87.545821 
L 103.730844 87.963676 
L 106.0057 88.125864 
L 108.280557 88.029964 
L 110.555414 87.677408 
L 112.83027 87.073462 
L 115.105127 86.227149 
L 117.379984 85.151108 
L 119.97982 83.660818 
L 122.579656 81.920642 
L 125.504472 79.706679 
L 129.079247 76.709855 
L 133.953939 72.298405 
L 142.728387 64.315501 
L 146.303161 61.380248 
L 149.227977 59.233469 
L 151.827813 57.564296 
L 154.427649 56.154192 
L 156.702506 55.154622 
L 158.977363 54.389474 
L 161.252219 53.870174 
L 163.527076 53.604481 
L 165.801933 53.596364 
L 168.07679 53.845943 
L 170.351646 54.349491 
L 172.626503 55.099486 
L 174.90136 56.084724 
L 177.501196 57.479732 
L 180.101032 59.135459 
L 183.025848 61.269407 
L 186.275643 63.915144 
L 190.500377 67.657274 
L 202.849599 78.799555 
L 206.099394 81.345229 
L 209.02421 83.365104 
L 211.624046 84.902668 
L 214.223882 86.166127 
L 216.498739 87.02729 
L 218.773595 87.646774 
L 221.048452 88.015327 
L 223.323309 88.127442 
L 225.598165 87.981445 
L 227.873022 87.579517 
L 230.147879 86.927662 
L 232.422735 86.035616 
L 234.697592 84.916705 
L 237.297428 83.381742 
L 240.222244 81.364403 
L 243.472039 78.82099 
L 247.371794 75.455842 
L 253.871384 69.475825 
L 259.396036 64.49478 
L 262.970811 61.542467 
L 266.220606 59.153228 
L 268.820442 57.495049 
L 271.420278 56.09729 
L 273.695135 55.109441 
L 275.969992 54.356688 
L 278.244848 53.850274 
L 280.519705 53.597764 
L 282.794562 53.60293 
L 285.069419 53.865694 
L 287.344275 54.382132 
L 289.619132 55.144529 
L 291.893989 56.141496 
L 294.493825 57.548862 
L 297.093661 59.215598 
L 300.018477 61.360053 
L 303.268272 64.014831 
L 307.493006 67.764149 
L 319.517248 78.627521 
L 322.767043 81.1911 
L 325.691859 83.231121 
L 328.291695 84.789385 
L 330.891532 86.075754 
L 333.166388 86.958424 
L 335.441245 87.600445 
L 337.716102 87.992226 
L 339.990958 88.127915 
L 342.265815 88.005484 
L 344.540672 87.626763 
L 346.815528 86.99741 
L 349.090385 86.126824 
L 351.365242 85.02801 
L 353.965078 83.513963 
L 356.889894 81.517054 
L 360.139689 78.991905 
L 364.039443 75.641767 
L 370.214054 69.969865 
L 376.388665 64.393837 
L 379.96344 61.451074 
L 382.888256 59.296196 
L 385.488092 57.618517 
L 388.087928 56.198851 
L 390.362785 55.190193 
L 392.637641 54.415423 
L 394.912498 53.886116 
L 397.187355 53.610177 
L 398.487273 53.568 
L 398.487273 53.568 
" style="fill:none;stroke:#000000;stroke-linecap:square;stroke-width:0.9;"/>
   </g>
   <g id="line2d_13">
    <path clip-path="url(#pfc489625fe)" d="M 73.832727 58.629195 
L 76.107584 57.068864 
L 78.382441 55.768946 
L 80.332318 54.880763 
L 82.282195 54.214379 
L 84.232072 53.779049 
L 86.181949 53.58082 
L 88.131826 53.622447 
L 90.081704 53.903351 
L 92.031581 54.419631 
L 93.981458 55.164113 
L 95.931335 56.126458 
L 98.206192 57.506553 
L 100.481048 59.138789 
L 103.080885 61.273177 
L 106.0057 63.953879 
L 109.905455 67.847359 
L 120.304799 78.43282 
L 123.554595 81.318831 
L 126.154431 83.342186 
L 128.429287 84.861275 
L 130.704144 86.115527 
L 132.654021 86.961697 
L 134.603898 87.584035 
L 136.553776 87.973896 
L 138.503653 88.125864 
L 140.45353 88.037828 
L 142.403407 87.711011 
L 144.353284 87.149954 
L 146.303161 86.362448 
L 148.578018 85.17225 
L 150.852875 83.711336 
L 153.452711 81.745867 
L 156.377527 79.216003 
L 159.627322 76.102468 
L 164.826994 70.752904 
L 171.001605 64.455494 
L 174.2514 61.443475 
L 177.176216 59.039244 
L 179.776052 57.209456 
L 182.050909 55.883081 
L 184.325766 54.839528 
L 186.275643 54.185261 
L 188.22552 53.762452 
L 190.175397 53.576976 
L 192.125274 53.631409 
L 194.075152 53.924994 
L 196.025029 54.453654 
L 197.974906 55.210044 
L 199.924783 56.183659 
L 202.19964 57.575888 
L 204.474496 59.218947 
L 207.074333 61.363838 
L 210.324128 64.367241 
L 214.548862 68.626184 
L 223.648288 77.916101 
L 226.898084 80.859307 
L 229.49792 82.941288 
L 231.772776 84.519844 
L 234.047633 85.840015 
L 235.99751 86.746883 
L 237.947387 87.432902 
L 239.897265 87.888542 
L 241.847142 88.107476 
L 243.797019 88.086662 
L 245.746896 87.826388 
L 247.696773 87.33027 
L 249.64665 86.6052 
L 251.596527 85.66125 
L 253.871384 84.300988 
L 256.146241 82.686478 
L 258.746077 80.569338 
L 261.670893 77.903702 
L 265.570647 74.022406 
L 276.294971 63.11704 
L 279.219787 60.518206 
L 281.819623 58.476466 
L 284.09448 56.93879 
L 286.369337 55.663985 
L 288.319214 54.798926 
L 290.269091 54.156802 
L 292.218968 53.746532 
L 294.168845 53.573815 
L 296.118722 53.641051 
L 298.0686 53.947306 
L 300.018477 54.488325 
L 301.968354 55.256594 
L 303.918231 56.24144 
L 306.193088 57.645747 
L 308.467944 59.299564 
L 311.067781 61.454875 
L 314.317576 64.468118 
L 318.54231 68.734008 
L 327.316757 77.70473 
L 330.566552 80.670178 
L 333.166388 82.775247 
L 335.766224 84.586039 
L 338.041081 85.893763 
L 339.990958 86.789144 
L 341.940835 87.463088 
L 343.890713 87.906236 
L 345.84059 88.11243 
L 347.790467 88.078808 
L 349.740344 87.805835 
L 351.690221 87.297304 
L 353.640098 86.560279 
L 355.589975 85.604997 
L 357.864832 84.232513 
L 360.139689 82.607074 
L 362.739525 80.479294 
L 365.664341 77.804354 
L 369.564095 73.915512 
L 380.288419 63.019995 
L 383.213235 60.431285 
L 385.813071 58.400834 
L 388.087928 56.874577 
L 390.362785 55.612405 
L 392.312662 54.758959 
L 394.262539 54.129003 
L 396.212416 53.731288 
L 398.162293 53.571338 
L 398.487273 53.568 
L 398.487273 53.568 
" style="fill:none;stroke:#000000;stroke-linecap:square;stroke-width:0.9;"/>
   </g>
   <g id="line2d_14">
    <path clip-path="url(#pfc489625fe)" d="M 73.832727 86.416742 
L 75.782604 87.282976 
L 77.407502 87.777647 
L 79.0324 88.058991 
L 80.657297 88.123465 
L 82.282195 87.970254 
L 83.907093 87.601291 
L 85.53199 87.021223 
L 87.481867 86.056959 
L 89.431744 84.816854 
L 91.381622 83.323401 
L 93.656478 81.297204 
L 96.256314 78.669083 
L 99.50611 75.040461 
L 111.205373 61.616721 
L 113.805209 59.154498 
L 116.080066 57.306549 
L 118.029943 55.986999 
L 119.97982 54.936978 
L 121.604717 54.281746 
L 123.229615 53.835261 
L 124.854513 53.603149 
L 126.47941 53.588335 
L 128.104308 53.791006 
L 129.729206 54.208607 
L 131.354103 54.835877 
L 133.30398 55.854055 
L 135.253857 57.144173 
L 137.203735 58.682832 
L 139.478591 60.754607 
L 142.078428 63.424012 
L 145.328223 67.086137 
L 156.052547 79.461094 
L 158.652383 81.999908 
L 160.92724 83.92928 
L 162.877117 85.327742 
L 164.826994 86.463589 
L 166.776871 87.316222 
L 168.401769 87.799086 
L 170.026667 88.068354 
L 171.651564 88.120633 
L 173.276462 87.955264 
L 174.90136 87.574331 
L 176.526257 86.982633 
L 178.476134 86.005067 
L 180.426011 84.752602 
L 182.375889 83.247954 
L 184.650745 81.210438 
L 187.250581 78.572016 
L 190.500377 74.934944 
L 201.87466 61.854166 
L 204.474496 59.361777 
L 206.749353 57.481919 
L 208.69923 56.131542 
L 210.649107 55.048072 
L 212.598984 54.251161 
L 214.223882 53.816557 
L 215.84878 53.596562 
L 217.473677 53.593948 
L 219.098575 53.808747 
L 220.723473 54.238254 
L 222.34837 54.877056 
L 224.298247 55.908375 
L 226.248124 57.210648 
L 228.522981 59.040661 
L 230.797838 61.16199 
L 233.722654 64.232541 
L 237.297428 68.337817 
L 245.746896 78.180732 
L 248.671712 81.173126 
L 250.946568 83.215469 
L 253.221425 84.952674 
L 255.171302 86.166127 
L 257.121179 87.10176 
L 258.746077 87.656829 
L 260.370975 88.000095 
L 261.995872 88.127231 
L 263.62077 88.036636 
L 265.245667 87.729452 
L 266.870565 87.209548 
L 268.495463 86.483478 
L 270.44534 85.353109 
L 272.395217 83.959667 
L 274.670074 82.035447 
L 277.26991 79.501442 
L 280.194726 76.322005 
L 284.744439 70.983851 
L 290.269091 64.534907 
L 293.193907 61.433708 
L 295.793743 58.995392 
L 298.0686 57.172596 
L 300.018477 55.877262 
L 301.968354 54.853448 
L 303.593251 54.221232 
L 305.218149 53.798527 
L 306.843047 53.590657 
L 308.467944 53.600243 
L 310.092842 53.827163 
L 311.71774 54.268558 
L 313.342637 54.918867 
L 315.292514 55.963285 
L 317.242391 57.277663 
L 319.517248 59.120247 
L 321.792105 61.252184 
L 324.716921 64.333073 
L 328.616675 68.830349 
L 336.416183 77.926726 
L 339.340999 80.947693 
L 341.615856 83.01868 
L 343.890713 84.789385 
L 345.84059 86.034793 
L 347.790467 87.004763 
L 349.415364 87.589818 
L 351.040262 87.963913 
L 352.66516 88.122335 
L 354.290057 88.063087 
L 355.914955 87.786917 
L 357.539853 87.297304 
L 359.16475 86.600417 
L 361.114627 85.503094 
L 363.064505 84.139976 
L 365.339361 82.246966 
L 367.939197 79.742201 
L 370.864013 76.586353 
L 375.088747 71.651182 
L 381.263358 64.433863 
L 384.188174 61.342758 
L 386.78801 58.916541 
L 389.062867 57.10643 
L 391.012744 55.823281 
L 392.962621 54.812631 
L 394.587518 54.191962 
L 396.212416 53.781171 
L 397.837314 53.585435 
L 398.487273 53.568 
L 398.487273 53.568 
" style="fill:none;stroke:#000000;stroke-linecap:square;stroke-width:0.9;"/>
   </g>
   <g id="line2d_15">
    <path clip-path="url(#pfc489625fe)" d="M 73.832727 62.208 
L 76.107584 59.623128 
L 78.057461 57.704362 
L 80.007338 56.109884 
L 81.632236 55.057517 
L 83.257133 54.27587 
L 84.882031 53.778344 
L 86.181949 53.59079 
L 87.481867 53.592687 
L 88.781785 53.784017 
L 90.081704 54.162676 
L 91.706601 54.892909 
L 93.331499 55.896685 
L 94.956396 57.156793 
L 96.906274 58.976576 
L 99.18113 61.46628 
L 101.780966 64.691775 
L 105.355741 69.536021 
L 111.205373 77.508852 
L 113.805209 80.681352 
L 116.080066 83.108361 
L 118.029943 84.863924 
L 119.65484 86.064323 
L 121.279738 87.003845 
L 122.904636 87.666383 
L 124.204554 87.989188 
L 125.504472 88.123813 
L 126.80439 88.068783 
L 128.104308 87.824701 
L 129.729206 87.258021 
L 131.354103 86.409999 
L 132.979001 85.295175 
L 134.603898 83.932661 
L 136.553776 82.003861 
L 138.828632 79.409447 
L 141.428468 76.098154 
L 145.653202 70.295627 
L 150.202916 64.137039 
L 152.802752 60.970012 
L 155.077609 58.549406 
L 157.027486 56.800361 
L 158.652383 55.606 
L 160.277281 54.672955 
L 161.902179 54.017223 
L 163.202097 53.700023 
L 164.502015 53.571076 
L 165.801933 53.631797 
L 167.101851 53.88152 
L 168.726749 54.455085 
L 170.351646 55.309699 
L 171.976544 56.43071 
L 173.601441 57.798897 
L 175.551319 59.733694 
L 177.826175 62.333798 
L 180.426011 65.649644 
L 184.650745 71.454684 
L 189.200459 77.609003 
L 191.800295 80.770526 
L 194.075152 83.184706 
L 196.025029 84.927215 
L 197.649926 86.115527 
L 199.274824 87.042085 
L 200.899722 87.691004 
L 202.19964 88.002596 
L 203.499558 88.125864 
L 204.799476 88.059453 
L 206.099394 87.804092 
L 207.724292 87.223646 
L 209.349189 86.362448 
L 210.974087 85.235263 
L 212.598984 83.861415 
L 214.548862 81.920642 
L 216.823718 79.314873 
L 219.423554 75.994506 
L 223.973268 69.73478 
L 228.198002 64.037021 
L 230.797838 60.881034 
L 233.072695 58.473305 
L 235.022572 56.737349 
L 236.647469 55.555097 
L 238.272367 54.635035 
L 239.897265 53.992936 
L 241.197183 53.686953 
L 242.497101 53.569367 
L 243.797019 53.641468 
L 245.096937 53.902464 
L 246.721835 54.489784 
L 248.346732 55.357557 
L 249.97163 56.490906 
L 251.921507 58.173826 
L 253.871384 60.169449 
L 256.146241 62.826838 
L 259.071057 66.625421 
L 269.145422 80.107699 
L 271.420278 82.613709 
L 273.370156 84.450316 
L 274.995053 85.726138 
L 276.619951 86.746883 
L 278.244848 87.495049 
L 279.869746 87.957809 
L 281.169664 88.117026 
L 282.469582 88.086662 
L 283.7695 87.867048 
L 285.069419 87.460598 
L 286.694316 86.696784 
L 288.319214 85.66125 
L 289.944111 84.371751 
L 291.893989 82.520529 
L 294.168845 80.000396 
L 296.768681 76.749597 
L 300.668436 71.436581 
L 305.868108 64.35465 
L 308.467944 61.164133 
L 310.742801 58.715956 
L 312.692678 56.93879 
L 314.317576 55.718354 
L 315.942473 54.757307 
L 317.567371 54.072128 
L 319.192269 53.674563 
L 320.492187 53.568342 
L 321.792105 53.651819 
L 323.092023 53.924079 
L 324.716921 54.52513 
L 326.341818 55.406028 
L 327.966716 56.551671 
L 329.916593 58.247951 
L 331.86647 60.255106 
L 334.141327 62.92326 
L 337.066143 66.730892 
L 346.815528 79.815305 
L 349.090385 82.359333 
L 351.040262 84.235377 
L 352.990139 85.781119 
L 354.615037 86.789144 
L 356.239934 87.523865 
L 357.864832 87.972687 
L 359.16475 88.120557 
L 360.464668 88.078808 
L 361.764586 87.847895 
L 363.064505 87.430356 
L 364.689402 86.653162 
L 366.3143 85.604997 
L 367.939197 84.30383 
L 369.889075 82.440161 
L 372.163931 79.90803 
L 374.763767 76.647333 
L 378.663522 71.327951 
L 383.863194 64.254062 
L 386.46303 61.074313 
L 388.737887 58.638805 
L 390.687764 56.874577 
L 392.312662 55.666148 
L 393.937559 54.718003 
L 395.562457 54.0464 
L 396.862375 53.716128 
L 398.162293 53.573933 
L 398.487273 53.568 
L 398.487273 53.568 
" style="fill:none;stroke:#000000;stroke-linecap:square;stroke-width:0.9;"/>
   </g>
  </g>
 </g>
 <defs>
  <clipPath id="pfc489625fe">
   <rect height="266.112" width="357.12" x="57.6" y="41.472"/>
  </clipPath>
 </defs>
</svg>
