<?xml version="1.0" encoding="utf-8" standalone="no"?>
<!DOCTYPE svg PUBLIC "-//W3C//DTD SVG 1.1//EN"
  "http://www.w3.org/Graphics/SVG/1.1/DTD/svg11.dtd">
<!-- Created with matplotlib (https://matplotlib.org/) -->
<svg height="345.6pt" version="1.1" viewBox="0 0 460.8 345.6" width="460.8pt" xmlns="http://www.w3.org/2000/svg" xmlns:xlink="http://www.w3.org/1999/xlink">
 <metadata>
  <rdf:RDF xmlns:cc="http://creativecommons.org/ns#" xmlns:dc="http://purl.org/dc/elements/1.1/" xmlns:rdf="http://www.w3.org/1999/02/22-rdf-syntax-ns#">
   <cc:Work>
    <dc:type rdf:resource="http://purl.org/dc/dcmitype/StillImage"/>
    <dc:date>2021-03-08T21:17:27.049339</dc:date>
    <dc:format>image/svg+xml</dc:format>
    <dc:creator>
     <cc:Agent>
      <dc:title>Matplotlib v3.3.4, https://matplotlib.org/</dc:title>
     </cc:Agent>
    </dc:creator>
   </cc:Work>
  </rdf:RDF>
 </metadata>
 <defs>
  <style type="text/css">*{stroke-linecap:butt;stroke-linejoin:round;}</style>
 </defs>
 <g id="figure_1">
  <g id="patch_1">
   <path d="M 0 345.6 
L 460.8 345.6 
L 460.8 0 
L 0 0 
z
" style="fill:#ffffff;"/>
  </g>
  <g id="axes_1">
   <g id="line2d_1">
    <path clip-path="url(#pdac9c213c4)" d="M 73.832727 278.20802 
L 78.057461 271.338821 
L 80.332318 268.042299 
L 82.282195 265.601773 
L 83.907093 263.906604 
L 85.53199 262.564287 
L 86.831908 261.767058 
L 88.131826 261.22963 
L 89.431744 260.960498 
L 90.731663 260.963914 
L 92.031581 261.239823 
L 93.331499 261.783866 
L 94.631417 262.587446 
L 95.931335 263.637865 
L 97.556233 265.272367 
L 99.18113 267.226024 
L 101.131007 269.923345 
L 103.730844 273.959099 
L 112.180311 287.521184 
L 114.130188 290.086025 
L 115.755086 291.904752 
L 117.379984 293.385546 
L 118.679902 294.302013 
L 119.97982 294.964161 
L 121.279738 295.361526 
L 122.579656 295.487829 
L 123.879574 295.341074 
L 125.179492 294.92358 
L 126.47941 294.241944 
L 127.779328 293.306937 
L 129.404226 291.804749 
L 131.029124 289.967095 
L 132.979001 287.383452 
L 135.253857 283.964676 
L 138.828632 278.099338 
L 143.053366 271.239231 
L 145.328223 267.954615 
L 147.2781 265.52769 
L 148.902998 263.845887 
L 150.527895 262.518434 
L 151.827813 261.733929 
L 153.127731 261.209749 
L 154.427649 260.954179 
L 155.727568 260.971256 
L 157.027486 261.260711 
L 158.327404 261.817971 
L 159.627322 262.634227 
L 160.92724 263.696584 
L 162.552138 265.344682 
L 164.177035 267.310152 
L 166.126912 270.018885 
L 168.726749 274.064528 
L 176.851237 287.152089 
L 178.801114 289.766559 
L 180.426011 291.635393 
L 182.050909 293.17294 
L 183.350827 294.138659 
L 184.650745 294.852639 
L 185.950663 295.303599 
L 187.250581 295.484411 
L 188.5505 295.39222 
L 189.850418 295.028482 
L 191.150336 294.398944 
L 192.450254 293.513555 
L 193.750172 292.386306 
L 195.37507 290.664606 
L 197.324947 288.19717 
L 199.599803 284.877229 
L 202.524619 280.160122 
L 208.049271 271.139918 
L 210.324128 267.867337 
L 212.274005 265.454108 
L 213.898903 263.785737 
L 215.5238 262.473201 
L 216.823718 261.701451 
L 218.123636 261.19054 
L 219.423554 260.948542 
L 220.723473 260.979281 
L 222.023391 261.28227 
L 223.323309 261.852723 
L 224.623227 262.681625 
L 225.923145 263.755876 
L 227.548043 265.417506 
L 229.17294 267.39471 
L 231.122817 270.114749 
L 233.722654 274.170121 
L 241.847142 287.244903 
L 243.797019 289.847119 
L 245.421916 291.703536 
L 247.046814 293.226985 
L 248.346732 294.180447 
L 249.64665 294.88151 
L 250.946568 295.319096 
L 252.246486 295.486291 
L 253.546405 295.380452 
L 254.846323 295.003252 
L 256.146241 294.360651 
L 257.446159 293.462804 
L 258.746077 292.323898 
L 260.370975 290.589036 
L 262.320852 288.10829 
L 264.595708 284.776836 
L 267.520524 280.052098 
L 273.045176 271.040884 
L 275.320033 267.780468 
L 277.26991 265.381031 
L 278.894808 263.726158 
L 280.519705 262.428591 
L 281.819623 261.669627 
L 283.119541 261.172004 
L 284.419459 260.943588 
L 285.719378 260.987987 
L 287.019296 261.304499 
L 288.319214 261.888123 
L 289.619132 262.729636 
L 290.91905 263.815741 
L 292.543948 265.490836 
L 294.168845 267.479696 
L 296.118722 270.210933 
L 298.718559 274.275873 
L 306.518067 286.87154 
L 308.467944 289.522147 
L 310.092842 291.427788 
L 311.71774 293.007263 
L 313.017658 294.00952 
L 314.317576 294.76208 
L 315.617494 295.25305 
L 316.917412 295.474672 
L 318.21733 295.423444 
L 319.517248 295.100176 
L 320.817166 294.509975 
L 322.117084 293.662168 
L 323.417002 292.570153 
L 325.0419 290.88835 
L 326.666798 288.893691 
L 328.616675 286.156895 
L 331.216511 282.087232 
L 339.01602 269.497524 
L 340.965897 266.852875 
L 342.590794 264.953322 
L 344.215692 263.380796 
L 345.51561 262.384604 
L 346.815528 261.638456 
L 348.115446 261.154143 
L 349.415364 260.939317 
L 350.715283 260.997374 
L 352.015201 261.327396 
L 353.315119 261.924168 
L 354.615037 262.77826 
L 355.914955 263.876175 
L 357.539853 265.564669 
L 359.16475 267.565107 
L 361.114627 270.307434 
L 363.714464 274.381781 
L 371.513972 286.965404 
L 373.463849 289.60407 
L 375.088747 291.497516 
L 376.713645 293.063077 
L 378.013563 294.053194 
L 379.313481 294.792923 
L 380.613399 295.270575 
L 381.913317 295.478602 
L 383.213235 295.413717 
L 384.513153 295.076945 
L 385.813071 294.473608 
L 387.112989 293.613239 
L 388.412907 292.509435 
L 390.037805 290.814266 
L 391.662703 288.808069 
L 393.61258 286.060238 
L 396.212416 281.981248 
L 398.487273 278.20802 
L 398.487273 278.20802 
" style="fill:none;stroke:#0000ff;stroke-linecap:square;stroke-width:0.5;"/>
   </g>
   <g id="line2d_2">
    <path clip-path="url(#pdac9c213c4)" d="M 73.832727 226.368015 
L 78.057461 219.498816 
L 80.332318 216.202294 
L 82.282195 213.761768 
L 83.907093 212.066599 
L 85.53199 210.724283 
L 86.831908 209.927053 
L 88.131826 209.389626 
L 89.431744 209.120493 
L 90.731663 209.123909 
L 92.031581 209.399818 
L 93.331499 209.943862 
L 94.631417 210.747442 
L 95.931335 211.79786 
L 97.556233 213.432362 
L 99.18113 215.38602 
L 101.131007 218.08334 
L 103.730844 222.119094 
L 112.180311 235.681179 
L 114.130188 238.24602 
L 115.755086 240.064747 
L 117.379984 241.545541 
L 118.679902 242.462009 
L 119.97982 243.124157 
L 121.279738 243.521522 
L 122.579656 243.647824 
L 123.879574 243.501069 
L 125.179492 243.083575 
L 126.47941 242.401939 
L 127.779328 241.466933 
L 129.404226 239.964744 
L 131.029124 238.127091 
L 132.979001 235.543447 
L 135.253857 232.124671 
L 138.828632 226.259334 
L 143.053366 219.399227 
L 145.328223 216.114611 
L 147.2781 213.687685 
L 148.902998 212.005882 
L 150.527895 210.678429 
L 151.827813 209.893924 
L 153.127731 209.369744 
L 154.427649 209.114174 
L 155.727568 209.131252 
L 157.027486 209.420707 
L 158.327404 209.977966 
L 159.627322 210.794223 
L 160.92724 211.856579 
L 162.552138 213.504677 
L 164.177035 215.470147 
L 166.126912 218.17888 
L 168.726749 222.224523 
L 176.851237 235.312084 
L 178.801114 237.926554 
L 180.426011 239.795388 
L 182.050909 241.332935 
L 183.350827 242.298654 
L 184.650745 243.012634 
L 185.950663 243.463594 
L 187.250581 243.644407 
L 188.5505 243.552216 
L 189.850418 243.188477 
L 191.150336 242.558939 
L 192.450254 241.67355 
L 193.750172 240.546301 
L 195.37507 238.824602 
L 197.324947 236.357165 
L 199.599803 233.037224 
L 202.524619 228.320117 
L 208.049271 219.299913 
L 210.324128 216.027332 
L 212.274005 213.614103 
L 213.898903 211.945733 
L 215.5238 210.633196 
L 216.823718 209.861446 
L 218.123636 209.350535 
L 219.423554 209.108537 
L 220.723473 209.139276 
L 222.023391 209.442266 
L 223.323309 210.012718 
L 224.623227 210.84162 
L 225.923145 211.915872 
L 227.548043 213.577501 
L 229.17294 215.554705 
L 231.122817 218.274744 
L 233.722654 222.330116 
L 241.847142 235.404898 
L 243.797019 238.007114 
L 245.421916 239.863532 
L 247.046814 241.38698 
L 248.346732 242.340442 
L 249.64665 243.041505 
L 250.946568 243.479092 
L 252.246486 243.646286 
L 253.546405 243.540447 
L 254.846323 243.163247 
L 256.146241 242.520646 
L 257.446159 241.622799 
L 258.746077 240.483893 
L 260.370975 238.749031 
L 262.320852 236.268285 
L 264.595708 232.936831 
L 267.520524 228.212093 
L 273.045176 219.200879 
L 275.320033 215.940463 
L 277.26991 213.541026 
L 278.894808 211.886154 
L 280.519705 210.588586 
L 281.819623 209.829622 
L 283.119541 209.332 
L 284.419459 209.103583 
L 285.719378 209.147982 
L 287.019296 209.464494 
L 288.319214 210.048118 
L 289.619132 210.889631 
L 290.91905 211.975736 
L 292.543948 213.650831 
L 294.168845 215.639692 
L 296.118722 218.370928 
L 298.718559 222.435868 
L 306.518067 235.031535 
L 308.467944 237.682143 
L 310.092842 239.587783 
L 311.71774 241.167258 
L 313.017658 242.169515 
L 314.317576 242.922075 
L 315.617494 243.413046 
L 316.917412 243.634668 
L 318.21733 243.58344 
L 319.517248 243.260171 
L 320.817166 242.66997 
L 322.117084 241.822163 
L 323.417002 240.730148 
L 325.0419 239.048345 
L 326.666798 237.053686 
L 328.616675 234.316891 
L 331.216511 230.247227 
L 339.01602 217.657519 
L 340.965897 215.01287 
L 342.590794 213.113317 
L 344.215692 211.540792 
L 345.51561 210.5446 
L 346.815528 209.798451 
L 348.115446 209.314138 
L 349.415364 209.099312 
L 350.715283 209.157369 
L 352.015201 209.487391 
L 353.315119 210.084163 
L 354.615037 210.938255 
L 355.914955 212.03617 
L 357.539853 213.724664 
L 359.16475 215.725102 
L 361.114627 218.467429 
L 363.714464 222.541776 
L 371.513972 235.125399 
L 373.463849 237.764065 
L 375.088747 239.657511 
L 376.713645 241.223072 
L 378.013563 242.213189 
L 379.313481 242.952918 
L 380.613399 243.43057 
L 381.913317 243.638597 
L 383.213235 243.573712 
L 384.513153 243.23694 
L 385.813071 242.633603 
L 387.112989 241.773234 
L 388.412907 240.669431 
L 390.037805 238.974262 
L 391.662703 236.968065 
L 393.61258 234.220233 
L 396.212416 230.141243 
L 398.487273 226.368015 
L 398.487273 226.368015 
" style="fill:none;stroke:#0000ff;stroke-linecap:square;stroke-width:0.5;"/>
   </g>
   <g id="line2d_3">
    <path clip-path="url(#pdac9c213c4)" d="M 73.832727 226.368015 
L 78.057461 233.237214 
L 80.332318 236.533736 
L 82.282195 238.974262 
L 83.907093 240.669431 
L 85.53199 242.011747 
L 86.831908 242.808977 
L 88.131826 243.346404 
L 89.431744 243.615537 
L 90.731663 243.612121 
L 92.031581 243.336212 
L 93.331499 242.792168 
L 94.631417 241.988588 
L 95.931335 240.93817 
L 97.556233 239.303668 
L 99.18113 237.35001 
L 101.131007 234.65269 
L 103.730844 230.616936 
L 112.180311 217.054851 
L 114.130188 214.49001 
L 115.755086 212.671283 
L 117.379984 211.190489 
L 118.679902 210.274021 
L 119.97982 209.611873 
L 121.279738 209.214508 
L 122.579656 209.088206 
L 123.879574 209.234961 
L 125.179492 209.652455 
L 126.47941 210.334091 
L 127.779328 211.269097 
L 129.404226 212.771286 
L 131.029124 214.60894 
L 132.979001 217.192583 
L 135.253857 220.611359 
L 138.828632 226.476696 
L 143.053366 233.336803 
L 145.328223 236.62142 
L 147.2781 239.048345 
L 148.902998 240.730148 
L 150.527895 242.057601 
L 151.827813 242.842106 
L 153.127731 243.366286 
L 154.427649 243.621856 
L 155.727568 243.604779 
L 157.027486 243.315323 
L 158.327404 242.758064 
L 159.627322 241.941807 
L 160.92724 240.879451 
L 162.552138 239.231353 
L 164.177035 237.265883 
L 166.126912 234.55715 
L 168.726749 230.511507 
L 176.851237 217.423946 
L 178.801114 214.809476 
L 180.426011 212.940642 
L 182.050909 211.403095 
L 183.350827 210.437376 
L 184.650745 209.723396 
L 185.950663 209.272436 
L 187.250581 209.091623 
L 188.5505 209.183815 
L 189.850418 209.547553 
L 191.150336 210.177091 
L 192.450254 211.06248 
L 193.750172 212.189729 
L 195.37507 213.911428 
L 197.324947 216.378865 
L 199.599803 219.698806 
L 202.524619 224.415913 
L 208.049271 233.436117 
L 210.324128 236.708698 
L 212.274005 239.121927 
L 213.898903 240.790297 
L 215.5238 242.102834 
L 216.823718 242.874584 
L 218.123636 243.385495 
L 219.423554 243.627493 
L 220.723473 243.596754 
L 222.023391 243.293764 
L 223.323309 242.723312 
L 224.623227 241.89441 
L 225.923145 240.820158 
L 227.548043 239.158529 
L 229.17294 237.181325 
L 231.122817 234.461286 
L 233.722654 230.405914 
L 241.847142 217.331132 
L 243.797019 214.728916 
L 245.421916 212.872498 
L 247.046814 211.34905 
L 248.346732 210.395588 
L 249.64665 209.694525 
L 250.946568 209.256938 
L 252.246486 209.089744 
L 253.546405 209.195583 
L 254.846323 209.572783 
L 256.146241 210.215384 
L 257.446159 211.113231 
L 258.746077 212.252137 
L 260.370975 213.986999 
L 262.320852 216.467745 
L 264.595708 219.799199 
L 267.520524 224.523937 
L 273.045176 233.535151 
L 275.320033 236.795567 
L 277.26991 239.195004 
L 278.894808 240.849876 
L 280.519705 242.147444 
L 281.819623 242.906408 
L 283.119541 243.40403 
L 284.419459 243.632447 
L 285.719378 243.588048 
L 287.019296 243.271536 
L 288.319214 242.687912 
L 289.619132 241.846399 
L 290.91905 240.760294 
L 292.543948 239.085199 
L 294.168845 237.096338 
L 296.118722 234.365102 
L 298.718559 230.300162 
L 306.518067 217.704495 
L 308.467944 215.053887 
L 310.092842 213.148247 
L 311.71774 211.568772 
L 313.017658 210.566515 
L 314.317576 209.813955 
L 315.617494 209.322985 
L 316.917412 209.101362 
L 318.21733 209.15259 
L 319.517248 209.475859 
L 320.817166 210.06606 
L 322.117084 210.913867 
L 323.417002 212.005882 
L 325.0419 213.687685 
L 326.666798 215.682344 
L 328.616675 218.419139 
L 331.216511 222.488803 
L 339.01602 235.078511 
L 340.965897 237.72316 
L 342.590794 239.622713 
L 344.215692 241.195238 
L 345.51561 242.19143 
L 346.815528 242.937579 
L 348.115446 243.421892 
L 349.415364 243.636718 
L 350.715283 243.578661 
L 352.015201 243.248639 
L 353.315119 242.651867 
L 354.615037 241.797775 
L 355.914955 240.69986 
L 357.539853 239.011366 
L 359.16475 237.010928 
L 361.114627 234.268601 
L 363.714464 230.194254 
L 371.513972 217.610631 
L 373.463849 214.971965 
L 375.088747 213.078519 
L 376.713645 211.512958 
L 378.013563 210.522841 
L 379.313481 209.783112 
L 380.613399 209.30546 
L 381.913317 209.097433 
L 383.213235 209.162318 
L 384.513153 209.49909 
L 385.813071 210.102427 
L 387.112989 210.962796 
L 388.412907 212.066599 
L 390.037805 213.761768 
L 391.662703 215.767966 
L 393.61258 218.515797 
L 396.212416 222.594787 
L 398.487273 226.368015 
L 398.487273 226.368015 
" style="fill:none;stroke:#0000ff;stroke-linecap:square;stroke-width:0.5;"/>
   </g>
   <g id="line2d_4">
    <path clip-path="url(#pdac9c213c4)" d="M 73.832727 174.52801 
L 78.057461 167.658811 
L 80.332318 164.36229 
L 82.282195 161.921764 
L 83.907093 160.226595 
L 85.53199 158.884278 
L 86.831908 158.087048 
L 88.131826 157.549621 
L 89.431744 157.280489 
L 90.731663 157.283904 
L 92.031581 157.559814 
L 93.331499 158.103857 
L 94.631417 158.907437 
L 95.931335 159.957856 
L 97.556233 161.592357 
L 99.18113 163.546015 
L 101.131007 166.243335 
L 103.730844 170.27909 
L 112.180311 183.841175 
L 114.130188 186.406015 
L 115.755086 188.224742 
L 117.379984 189.705536 
L 118.679902 190.622004 
L 119.97982 191.284152 
L 121.279738 191.681517 
L 122.579656 191.80782 
L 123.879574 191.661064 
L 125.179492 191.24357 
L 126.47941 190.561934 
L 127.779328 189.626928 
L 129.404226 188.12474 
L 131.029124 186.287086 
L 132.979001 183.703442 
L 135.253857 180.284666 
L 138.828632 174.419329 
L 143.053366 167.559222 
L 145.328223 164.274606 
L 147.2781 161.84768 
L 148.902998 160.165877 
L 150.527895 158.838424 
L 151.827813 158.053919 
L 153.127731 157.52974 
L 154.427649 157.274169 
L 155.727568 157.291247 
L 157.027486 157.580702 
L 158.327404 158.137961 
L 159.627322 158.954218 
L 160.92724 160.016574 
L 162.552138 161.664673 
L 164.177035 163.630142 
L 166.126912 166.338875 
L 168.726749 170.384518 
L 176.851237 183.47208 
L 178.801114 186.086549 
L 180.426011 187.955384 
L 182.050909 189.492931 
L 183.350827 190.458649 
L 184.650745 191.172629 
L 185.950663 191.623589 
L 187.250581 191.804402 
L 188.5505 191.712211 
L 189.850418 191.348472 
L 191.150336 190.718935 
L 192.450254 189.833545 
L 193.750172 188.706296 
L 195.37507 186.984597 
L 197.324947 184.51716 
L 199.599803 181.197219 
L 202.524619 176.480113 
L 208.049271 167.459908 
L 210.324128 164.187327 
L 212.274005 161.774098 
L 213.898903 160.105728 
L 215.5238 158.793192 
L 216.823718 158.021442 
L 218.123636 157.510531 
L 219.423554 157.268533 
L 220.723473 157.299271 
L 222.023391 157.602261 
L 223.323309 158.172714 
L 224.623227 159.001615 
L 225.923145 160.075867 
L 227.548043 161.737497 
L 229.17294 163.714701 
L 231.122817 166.434739 
L 233.722654 170.490111 
L 241.847142 183.564893 
L 243.797019 186.16711 
L 245.421916 188.023527 
L 247.046814 189.546975 
L 248.346732 190.500437 
L 249.64665 191.201501 
L 250.946568 191.639087 
L 252.246486 191.806282 
L 253.546405 191.700443 
L 254.846323 191.323242 
L 256.146241 190.680641 
L 257.446159 189.782794 
L 258.746077 188.643889 
L 260.370975 186.909026 
L 262.320852 184.428281 
L 264.595708 181.096827 
L 267.520524 176.372088 
L 273.045176 167.360874 
L 275.320033 164.100458 
L 277.26991 161.701021 
L 278.894808 160.046149 
L 280.519705 158.748581 
L 281.819623 157.989617 
L 283.119541 157.491995 
L 284.419459 157.263579 
L 285.719378 157.307977 
L 287.019296 157.624489 
L 288.319214 158.208113 
L 289.619132 159.049626 
L 290.91905 160.135731 
L 292.543948 161.810826 
L 294.168845 163.799687 
L 296.118722 166.530924 
L 298.718559 170.595864 
L 306.518067 183.191531 
L 308.467944 185.842138 
L 310.092842 187.747778 
L 311.71774 189.327253 
L 313.017658 190.329511 
L 314.317576 191.082071 
L 315.617494 191.573041 
L 316.917412 191.794663 
L 318.21733 191.743435 
L 319.517248 191.420166 
L 320.817166 190.829965 
L 322.117084 189.982159 
L 323.417002 188.890143 
L 325.0419 187.20834 
L 326.666798 185.213681 
L 328.616675 182.476886 
L 331.216511 178.407222 
L 339.01602 165.817515 
L 340.965897 163.172865 
L 342.590794 161.273313 
L 344.215692 159.700787 
L 345.51561 158.704595 
L 346.815528 157.958447 
L 348.115446 157.474133 
L 349.415364 157.259307 
L 350.715283 157.317364 
L 352.015201 157.647386 
L 353.315119 158.244158 
L 354.615037 159.09825 
L 355.914955 160.196165 
L 357.539853 161.884659 
L 359.16475 163.885097 
L 361.114627 166.627424 
L 363.714464 170.701772 
L 371.513972 183.285395 
L 373.463849 185.92406 
L 375.088747 187.817507 
L 376.713645 189.383067 
L 378.013563 190.373184 
L 379.313481 191.112913 
L 380.613399 191.590565 
L 381.913317 191.798592 
L 383.213235 191.733707 
L 384.513153 191.396935 
L 385.813071 190.793598 
L 387.112989 189.93323 
L 388.412907 188.829426 
L 390.037805 187.134257 
L 391.662703 185.12806 
L 393.61258 182.380229 
L 396.212416 178.301238 
L 398.487273 174.52801 
L 398.487273 174.52801 
" style="fill:none;stroke:#0000ff;stroke-linecap:square;stroke-width:0.5;"/>
   </g>
   <g id="line2d_5">
    <path clip-path="url(#pdac9c213c4)" d="M 73.832727 159.56309 
L 75.457625 161.100637 
L 77.082523 162.969471 
L 79.0324 165.583941 
L 81.307256 169.02824 
L 84.882031 174.908367 
L 88.781785 181.247317 
L 91.056642 184.561452 
L 93.006519 187.022198 
L 94.631417 188.73729 
L 96.256314 190.101803 
L 97.556233 190.91806 
L 98.856151 191.475319 
L 100.156069 191.764774 
L 101.455987 191.781851 
L 102.755905 191.526281 
L 104.055823 191.002101 
L 105.355741 190.217596 
L 106.655659 189.185162 
L 108.280557 187.571175 
L 109.905455 185.635381 
L 111.855332 182.95538 
L 114.455168 178.934758 
L 123.229615 164.896715 
L 125.179492 162.376632 
L 126.80439 160.602694 
L 128.429287 159.172329 
L 129.729206 158.299433 
L 131.029124 157.682984 
L 132.329042 157.332721 
L 133.62896 157.254182 
L 134.928878 157.448605 
L 136.228796 157.91292 
L 137.528714 158.63979 
L 138.828632 159.617727 
L 140.45353 161.169311 
L 142.078428 163.050489 
L 144.028305 165.677108 
L 146.303161 169.131379 
L 150.202916 175.559876 
L 153.77769 181.347312 
L 156.052547 184.649738 
L 158.002424 187.097028 
L 159.627322 188.798855 
L 161.252219 190.148584 
L 162.552138 190.952164 
L 163.852056 191.496207 
L 165.151974 191.772116 
L 166.451892 191.775532 
L 167.75181 191.5064 
L 169.051728 190.968972 
L 170.351646 190.171743 
L 171.651564 189.127308 
L 173.276462 187.499629 
L 174.90136 185.551907 
L 176.851237 182.860333 
L 179.451073 178.829582 
L 187.900541 165.260665 
L 189.850418 162.689531 
L 191.475315 160.864477 
L 193.100213 159.376537 
L 194.400131 158.453881 
L 195.700049 157.78523 
L 196.999967 157.381152 
L 198.299885 157.24803 
L 199.599803 157.387969 
L 200.899722 157.798758 
L 202.19964 158.473904 
L 203.499558 159.40274 
L 205.124455 160.897812 
L 206.749353 162.729175 
L 208.69923 165.306576 
L 210.974087 168.720146 
L 214.548862 174.582351 
L 218.773595 181.447038 
L 221.048452 184.737623 
L 222.998329 187.171361 
L 224.623227 188.859855 
L 226.248124 190.194747 
L 227.548043 190.985618 
L 228.847961 191.516424 
L 230.147879 191.778777 
L 231.447797 191.76853 
L 232.747715 191.485847 
L 234.047633 190.935193 
L 235.347551 190.12527 
L 236.647469 189.068878 
L 238.272367 187.427569 
L 239.897265 185.467996 
L 241.847142 182.764956 
L 244.446978 178.724237 
L 252.896446 165.169119 
L 254.846323 162.610596 
L 256.47122 160.798214 
L 258.096118 159.324581 
L 259.396036 158.414311 
L 260.695954 157.758673 
L 261.995872 157.368025 
L 263.29579 157.248543 
L 264.595708 157.402113 
L 265.895627 157.826308 
L 267.195545 158.514427 
L 268.495463 159.455595 
L 270.12036 160.964884 
L 271.745258 162.808811 
L 273.695135 165.398671 
L 275.969992 168.822619 
L 279.544767 174.691031 
L 283.7695 181.54649 
L 286.044357 184.825105 
L 287.994234 187.245194 
L 289.619132 188.920289 
L 291.244029 190.24029 
L 292.543948 191.018422 
L 293.843866 191.535969 
L 295.143784 191.784755 
L 296.443702 191.760847 
L 297.74362 191.464623 
L 299.043538 190.900764 
L 300.343456 190.078181 
L 301.643374 189.009872 
L 303.268272 187.354999 
L 304.89317 185.383653 
L 306.843047 182.669253 
L 309.442883 178.618726 
L 317.567371 165.53749 
L 319.517248 162.929134 
L 321.142146 161.066499 
L 322.767043 159.535993 
L 324.066962 158.576398 
L 325.36688 157.868873 
L 326.666798 157.424598 
L 327.966716 157.250593 
L 329.266634 157.349609 
L 330.566552 157.72008 
L 331.86647 158.356153 
L 333.166388 159.247775 
L 334.466306 160.380858 
L 336.091204 162.109147 
L 338.041081 164.583251 
L 340.315938 167.908965 
L 343.240753 172.629911 
L 348.765405 181.645664 
L 351.040262 184.912179 
L 352.990139 187.318524 
L 354.615037 188.980154 
L 356.239934 190.285212 
L 357.539853 191.050573 
L 358.839771 191.554842 
L 360.139689 191.79005 
L 361.439607 191.752482 
L 362.739525 191.442729 
L 364.039443 190.865688 
L 365.339361 190.030476 
L 366.639279 188.950293 
L 368.264177 187.281922 
L 369.889075 185.29888 
L 371.838952 182.573229 
L 374.438788 178.513053 
L 382.563276 165.444854 
L 384.513153 162.848803 
L 386.138051 160.998622 
L 387.762948 159.482245 
L 389.062867 158.534926 
L 390.362785 157.840332 
L 391.662703 157.409438 
L 392.962621 157.249055 
L 394.262539 157.361717 
L 395.562457 157.745642 
L 396.862375 158.394765 
L 398.162293 159.298828 
L 398.487273 159.56309 
L 398.487273 159.56309 
" style="fill:none;stroke:#0000ff;stroke-linecap:square;stroke-width:0.5;"/>
   </g>
   <g id="line2d_6">
    <path clip-path="url(#pdac9c213c4)" d="M 73.832727 189.492931 
L 75.132645 190.458649 
L 76.432563 191.172629 
L 77.732482 191.623589 
L 79.0324 191.804402 
L 80.332318 191.712211 
L 81.632236 191.348472 
L 82.932154 190.718935 
L 84.232072 189.833545 
L 85.53199 188.706296 
L 87.156888 186.984597 
L 89.106765 184.51716 
L 91.381622 181.197219 
L 94.306437 176.480113 
L 99.831089 167.459908 
L 102.105946 164.187327 
L 104.055823 161.774098 
L 105.680721 160.105728 
L 107.305618 158.793192 
L 108.605536 158.021442 
L 109.905455 157.510531 
L 111.205373 157.268533 
L 112.505291 157.299271 
L 113.805209 157.602261 
L 115.105127 158.172714 
L 116.405045 159.001615 
L 117.704963 160.075867 
L 119.329861 161.737497 
L 120.954758 163.714701 
L 122.904636 166.434739 
L 125.504472 170.490111 
L 133.62896 183.564893 
L 135.578837 186.16711 
L 137.203735 188.023527 
L 138.828632 189.546975 
L 140.12855 190.500437 
L 141.428468 191.201501 
L 142.728387 191.639087 
L 144.028305 191.806282 
L 145.328223 191.700443 
L 146.628141 191.323242 
L 147.928059 190.680641 
L 149.227977 189.782794 
L 150.527895 188.643889 
L 152.152793 186.909026 
L 154.10267 184.428281 
L 156.377527 181.096827 
L 159.302342 176.372088 
L 164.826994 167.360874 
L 167.101851 164.100458 
L 169.051728 161.701021 
L 170.676626 160.046149 
L 172.301523 158.748581 
L 173.601441 157.989617 
L 174.90136 157.491995 
L 176.201278 157.263579 
L 177.501196 157.307977 
L 178.801114 157.624489 
L 180.101032 158.208113 
L 181.40095 159.049626 
L 182.700868 160.135731 
L 184.325766 161.810826 
L 185.950663 163.799687 
L 187.900541 166.530924 
L 190.500377 170.595864 
L 198.299885 183.191531 
L 200.249762 185.842138 
L 201.87466 187.747778 
L 203.499558 189.327253 
L 204.799476 190.329511 
L 206.099394 191.082071 
L 207.399312 191.573041 
L 208.69923 191.794663 
L 209.999148 191.743435 
L 211.299066 191.420166 
L 212.598984 190.829965 
L 213.898903 189.982159 
L 215.198821 188.890143 
L 216.823718 187.20834 
L 218.448616 185.213681 
L 220.398493 182.476886 
L 222.998329 178.407222 
L 230.797838 165.817515 
L 232.747715 163.172865 
L 234.372613 161.273313 
L 235.99751 159.700787 
L 237.297428 158.704595 
L 238.597346 157.958447 
L 239.897265 157.474133 
L 241.197183 157.259307 
L 242.497101 157.317364 
L 243.797019 157.647386 
L 245.096937 158.244158 
L 246.396855 159.09825 
L 247.696773 160.196165 
L 249.321671 161.884659 
L 250.946568 163.885097 
L 252.896446 166.627424 
L 255.496282 170.701772 
L 263.29579 183.285395 
L 265.245667 185.92406 
L 266.870565 187.817507 
L 268.495463 189.383067 
L 269.795381 190.373184 
L 271.095299 191.112913 
L 272.395217 191.590565 
L 273.695135 191.798592 
L 274.995053 191.733707 
L 276.294971 191.396935 
L 277.594889 190.793598 
L 278.894808 189.93323 
L 280.194726 188.829426 
L 281.819623 187.134257 
L 283.444521 185.12806 
L 285.394398 182.380229 
L 287.994234 178.301238 
L 295.793743 165.723824 
L 297.74362 163.091168 
L 299.368518 161.203847 
L 300.993415 159.645266 
L 302.293333 158.661234 
L 303.593251 157.927932 
L 304.89317 157.456946 
L 306.193088 157.255719 
L 307.493006 157.327432 
L 308.792924 157.670951 
L 310.092842 158.280847 
L 311.39276 159.147484 
L 312.692678 160.257166 
L 314.317576 161.958993 
L 315.942473 163.970929 
L 317.892351 166.724237 
L 320.492187 170.807831 
L 328.291695 183.378912 
L 330.241572 186.005532 
L 331.86647 187.886709 
L 333.491368 189.438294 
L 334.791286 190.416231 
L 336.091204 191.1431 
L 337.391122 191.607415 
L 338.69104 191.801839 
L 339.990958 191.723299 
L 341.290876 191.373037 
L 342.590794 190.756587 
L 343.890713 189.883691 
L 345.190631 188.768143 
L 346.815528 187.059675 
L 348.440426 185.042019 
L 350.390303 182.283261 
L 352.990139 178.195105 
L 360.464668 166.100641 
L 362.414545 163.420639 
L 364.364423 161.134908 
L 365.98932 159.590334 
L 367.289238 158.618502 
L 368.589156 157.898074 
L 369.889075 157.440434 
L 371.188993 157.252815 
L 372.488911 157.338181 
L 373.788829 157.695183 
L 375.088747 158.318179 
L 376.388665 159.197326 
L 377.688583 160.318731 
L 379.313481 162.033823 
L 380.938378 164.057178 
L 382.888256 166.821359 
L 385.488092 170.914037 
L 392.962621 183.002778 
L 394.912498 185.676954 
L 396.537396 187.606755 
L 398.162293 189.213871 
L 398.487273 189.492931 
L 398.487273 189.492931 
" style="fill:none;stroke:#0000ff;stroke-linecap:square;stroke-width:0.5;"/>
   </g>
   <g id="line2d_7">
    <path clip-path="url(#pdac9c213c4)" d="M 73.832727 122.688005 
L 78.057461 115.818807 
L 80.332318 112.522285 
L 82.282195 110.081759 
L 83.907093 108.38659 
L 85.53199 107.044273 
L 86.831908 106.247043 
L 88.131826 105.709616 
L 89.431744 105.440484 
L 90.731663 105.443899 
L 92.031581 105.719809 
L 93.331499 106.263852 
L 94.631417 107.067432 
L 95.931335 108.117851 
L 97.556233 109.752353 
L 99.18113 111.70601 
L 101.131007 114.403331 
L 103.730844 118.439085 
L 112.180311 132.00117 
L 114.130188 134.566011 
L 115.755086 136.384738 
L 117.379984 137.865532 
L 118.679902 138.781999 
L 119.97982 139.444147 
L 121.279738 139.841512 
L 122.579656 139.967815 
L 123.879574 139.82106 
L 125.179492 139.403565 
L 126.47941 138.721929 
L 127.779328 137.786923 
L 129.404226 136.284735 
L 131.029124 134.447081 
L 132.979001 131.863438 
L 135.253857 128.444662 
L 138.828632 122.579324 
L 143.053366 115.719217 
L 145.328223 112.434601 
L 147.2781 110.007676 
L 148.902998 108.325872 
L 150.527895 106.99842 
L 151.827813 106.213914 
L 153.127731 105.689735 
L 154.427649 105.434165 
L 155.727568 105.451242 
L 157.027486 105.740697 
L 158.327404 106.297956 
L 159.627322 107.114213 
L 160.92724 108.176569 
L 162.552138 109.824668 
L 164.177035 111.790137 
L 166.126912 114.498871 
L 168.726749 118.544514 
L 176.851237 131.632075 
L 178.801114 134.246545 
L 180.426011 136.115379 
L 182.050909 137.652926 
L 183.350827 138.618644 
L 184.650745 139.332625 
L 185.950663 139.783584 
L 187.250581 139.964397 
L 188.5505 139.872206 
L 189.850418 139.508468 
L 191.150336 138.87893 
L 192.450254 137.993541 
L 193.750172 136.866291 
L 195.37507 135.144592 
L 197.324947 132.677156 
L 199.599803 129.357214 
L 202.524619 124.640108 
L 208.049271 115.619904 
L 210.324128 112.347323 
L 212.274005 109.934094 
L 213.898903 108.265723 
L 215.5238 106.953187 
L 216.823718 106.181437 
L 218.123636 105.670526 
L 219.423554 105.428528 
L 220.723473 105.459266 
L 222.023391 105.762256 
L 223.323309 106.332709 
L 224.623227 107.16161 
L 225.923145 108.235862 
L 227.548043 109.897492 
L 229.17294 111.874696 
L 231.122817 114.594735 
L 233.722654 118.650106 
L 241.847142 131.724888 
L 243.797019 134.327105 
L 245.421916 136.183522 
L 247.046814 137.706971 
L 248.346732 138.660432 
L 249.64665 139.361496 
L 250.946568 139.799082 
L 252.246486 139.966277 
L 253.546405 139.860438 
L 254.846323 139.483238 
L 256.146241 138.840637 
L 257.446159 137.942789 
L 258.746077 136.803884 
L 260.370975 135.069022 
L 262.320852 132.588276 
L 264.595708 129.256822 
L 267.520524 124.532083 
L 273.045176 115.520869 
L 275.320033 112.260454 
L 277.26991 109.861016 
L 278.894808 108.206144 
L 280.519705 106.908576 
L 281.819623 106.149612 
L 283.119541 105.65199 
L 284.419459 105.423574 
L 285.719378 105.467972 
L 287.019296 105.784484 
L 288.319214 106.368108 
L 289.619132 107.209622 
L 290.91905 108.295727 
L 292.543948 109.970822 
L 294.168845 111.959682 
L 296.118722 114.690919 
L 298.718559 118.755859 
L 306.518067 131.351526 
L 308.467944 134.002133 
L 310.092842 135.907773 
L 311.71774 137.487249 
L 313.017658 138.489506 
L 314.317576 139.242066 
L 315.617494 139.733036 
L 316.917412 139.954658 
L 318.21733 139.90343 
L 319.517248 139.580162 
L 320.817166 138.989961 
L 322.117084 138.142154 
L 323.417002 137.050139 
L 325.0419 135.368335 
L 326.666798 133.373676 
L 328.616675 130.636881 
L 331.216511 126.567217 
L 339.01602 113.97751 
L 340.965897 111.332861 
L 342.590794 109.433308 
L 344.215692 107.860782 
L 345.51561 106.86459 
L 346.815528 106.118442 
L 348.115446 105.634128 
L 349.415364 105.419303 
L 350.715283 105.47736 
L 352.015201 105.807381 
L 353.315119 106.404153 
L 354.615037 107.258245 
L 355.914955 108.35616 
L 357.539853 110.044655 
L 359.16475 112.045093 
L 361.114627 114.787419 
L 363.714464 118.861767 
L 371.513972 131.44539 
L 373.463849 134.084055 
L 375.088747 135.977502 
L 376.713645 137.543063 
L 378.013563 138.533179 
L 379.313481 139.272909 
L 380.613399 139.750561 
L 381.913317 139.958588 
L 383.213235 139.893703 
L 384.513153 139.556931 
L 385.813071 138.953593 
L 387.112989 138.093225 
L 388.412907 136.989421 
L 390.037805 135.294252 
L 391.662703 133.288055 
L 393.61258 130.540224 
L 396.212416 126.461233 
L 398.487273 122.688005 
L 398.487273 122.688005 
" style="fill:none;stroke:#0000ff;stroke-linecap:square;stroke-width:0.5;"/>
   </g>
   <g id="line2d_8">
    <path clip-path="url(#pdac9c213c4)" d="M 73.832727 105.408004 
L 75.132645 105.544534 
L 76.432563 105.951969 
L 77.732482 106.623868 
L 79.0324 107.549615 
L 80.657297 109.041123 
L 82.282195 110.869334 
L 84.232072 113.443604 
L 86.506929 116.854558 
L 90.081704 122.715176 
L 94.306437 129.582127 
L 96.581294 132.875685 
L 98.531171 135.31282 
L 100.156069 137.004654 
L 101.780966 138.343259 
L 103.080885 139.137311 
L 104.380803 139.671428 
L 105.680721 139.937171 
L 106.980639 139.93034 
L 108.280557 139.651043 
L 109.580475 139.103694 
L 110.880393 138.296941 
L 112.180311 137.243534 
L 113.805209 135.605627 
L 115.430106 133.64901 
L 117.379984 130.948826 
L 119.97982 126.910584 
L 128.429287 113.351966 
L 130.379165 110.790281 
L 132.004062 108.974724 
L 133.62896 107.497509 
L 134.928878 106.584139 
L 136.228796 105.925245 
L 137.528714 105.531239 
L 138.828632 105.408346 
L 140.12855 105.558508 
L 141.428468 105.979354 
L 142.728387 106.664232 
L 144.028305 107.60232 
L 145.653202 109.108061 
L 147.2781 110.948854 
L 149.227977 113.535609 
L 151.502834 116.956975 
L 155.077609 122.823857 
L 159.302342 129.681648 
L 161.577199 132.963268 
L 163.527076 135.386778 
L 165.151974 137.065229 
L 166.776871 138.388958 
L 168.07679 139.170277 
L 169.376708 139.691141 
L 170.676626 139.94332 
L 171.976544 139.922827 
L 173.276462 139.629987 
L 174.57638 139.069427 
L 175.876298 138.250006 
L 177.176216 137.184672 
L 178.801114 135.533185 
L 180.426011 133.564774 
L 182.375889 130.853205 
L 184.975725 126.805114 
L 193.100213 113.720699 
L 195.05009 111.109283 
L 196.674988 109.243546 
L 198.299885 107.709518 
L 199.599803 106.74686 
L 200.899722 106.036107 
L 202.19964 105.588489 
L 203.499558 105.41108 
L 204.799476 105.506683 
L 206.099394 105.873789 
L 207.399312 106.506595 
L 208.69923 107.395101 
L 209.999148 108.525269 
L 211.624046 110.250265 
L 213.573923 112.721038 
L 215.84878 116.04387 
L 218.773595 120.762902 
L 224.298247 129.780892 
L 226.573104 133.050444 
L 228.522981 135.460234 
L 230.147879 137.125236 
L 231.772776 138.434035 
L 233.072695 139.202592 
L 234.372613 139.710182 
L 235.672531 139.948786 
L 236.972449 139.914632 
L 238.272367 139.608261 
L 239.572285 139.034513 
L 240.872203 138.202455 
L 242.172121 137.125236 
L 243.797019 135.460234 
L 245.421916 133.480109 
L 247.371794 130.75726 
L 249.97163 126.699481 
L 258.096118 113.627975 
L 260.045995 111.028838 
L 261.670893 109.175536 
L 263.29579 107.655622 
L 264.595708 106.70523 
L 265.895627 106.0074 
L 267.195545 105.57316 
L 268.495463 105.409371 
L 269.795381 105.518621 
L 271.095299 105.899185 
L 272.395217 106.545048 
L 273.695135 107.446004 
L 274.995053 108.587816 
L 276.619951 110.325959 
L 278.569828 112.810016 
L 280.844685 116.144328 
L 283.7695 120.870945 
L 289.294152 129.879856 
L 291.569009 133.13721 
L 293.518886 135.533185 
L 295.143784 137.184672 
L 296.443702 138.250006 
L 297.74362 139.069427 
L 299.043538 139.629987 
L 300.343456 139.922827 
L 301.643374 139.94332 
L 302.943292 139.691141 
L 304.24321 139.170277 
L 305.543129 138.388958 
L 306.843047 137.35953 
L 308.467944 135.748977 
L 310.092842 133.816177 
L 312.042719 131.139085 
L 314.642555 127.12102 
L 323.417002 113.079281 
L 325.36688 110.55596 
L 326.991777 108.778794 
L 328.616675 107.344804 
L 329.916593 106.468782 
L 331.216511 105.849057 
L 332.516429 105.495425 
L 333.816347 105.413472 
L 335.116265 105.604494 
L 336.416183 106.065472 
L 337.716102 106.789121 
L 339.01602 107.764007 
L 340.640917 109.312088 
L 342.265815 111.190187 
L 344.215692 113.813779 
L 346.490549 117.265569 
L 350.390303 123.692748 
L 353.965078 129.482334 
L 356.239934 132.787699 
L 358.189812 135.238362 
L 359.814709 136.943512 
L 361.439607 138.296941 
L 362.739525 139.103694 
L 364.039443 139.651043 
L 365.339361 139.93034 
L 366.639279 139.937171 
L 367.939197 139.671428 
L 369.239115 139.137311 
L 370.539034 138.343259 
L 371.838952 137.301821 
L 373.463849 135.677559 
L 375.088747 133.732812 
L 377.038624 131.044121 
L 379.63846 127.015888 
L 388.087928 113.443604 
L 390.037805 110.869334 
L 391.662703 109.041123 
L 393.2876 107.549615 
L 394.587518 106.623868 
L 395.887437 105.951969 
L 397.187355 105.544534 
L 398.487273 105.408004 
L 398.487273 105.408004 
" style="fill:none;stroke:#0000ff;stroke-linecap:square;stroke-width:0.5;"/>
   </g>
   <g id="line2d_9">
    <path clip-path="url(#pdac9c213c4)" d="M 73.832727 122.688005 
L 78.057461 129.557204 
L 80.332318 132.853726 
L 82.282195 135.294252 
L 83.907093 136.989421 
L 85.53199 138.331738 
L 86.831908 139.128968 
L 88.131826 139.666395 
L 89.431744 139.935527 
L 90.731663 139.932112 
L 92.031581 139.656202 
L 93.331499 139.112159 
L 94.631417 138.308579 
L 95.931335 137.25816 
L 97.556233 135.623658 
L 99.18113 133.670001 
L 101.131007 130.97268 
L 103.730844 126.936926 
L 112.180311 113.374841 
L 114.130188 110.81 
L 115.755086 108.991273 
L 117.379984 107.510479 
L 118.679902 106.594012 
L 119.97982 105.931864 
L 121.279738 105.534499 
L 122.579656 105.408196 
L 123.879574 105.554951 
L 125.179492 105.972446 
L 126.47941 106.654082 
L 127.779328 107.589088 
L 129.404226 109.091276 
L 131.029124 110.92893 
L 132.979001 113.512573 
L 135.253857 116.931349 
L 138.828632 122.796687 
L 143.053366 129.656794 
L 145.328223 132.94141 
L 147.2781 135.368335 
L 148.902998 137.050139 
L 150.527895 138.377591 
L 151.827813 139.162097 
L 153.127731 139.686276 
L 154.427649 139.941846 
L 155.727568 139.924769 
L 157.027486 139.635314 
L 158.327404 139.078055 
L 159.627322 138.261798 
L 160.92724 137.199442 
L 162.552138 135.551343 
L 164.177035 133.585874 
L 166.126912 130.87714 
L 168.726749 126.831497 
L 176.851237 113.743936 
L 178.801114 111.129466 
L 180.426011 109.260632 
L 182.050909 107.723085 
L 183.350827 106.757367 
L 184.650745 106.043386 
L 185.950663 105.592427 
L 187.250581 105.411614 
L 188.5505 105.503805 
L 189.850418 105.867543 
L 191.150336 106.497081 
L 192.450254 107.38247 
L 193.750172 108.50972 
L 195.37507 110.231419 
L 197.324947 112.698855 
L 199.599803 116.018797 
L 202.524619 120.735903 
L 208.049271 129.756107 
L 210.324128 133.028688 
L 212.274005 135.441917 
L 213.898903 137.110288 
L 215.5238 138.422824 
L 216.823718 139.194574 
L 218.123636 139.705485 
L 219.423554 139.947483 
L 220.723473 139.916745 
L 222.023391 139.613755 
L 223.323309 139.043302 
L 224.623227 138.214401 
L 225.923145 137.140149 
L 227.548043 135.478519 
L 229.17294 133.501315 
L 231.122817 130.781276 
L 233.722654 126.725905 
L 241.847142 113.651122 
L 243.797019 111.048906 
L 245.421916 109.192489 
L 247.046814 107.66904 
L 248.346732 106.715579 
L 249.64665 106.014515 
L 250.946568 105.576929 
L 252.246486 105.409734 
L 253.546405 105.515573 
L 254.846323 105.892773 
L 256.146241 106.535374 
L 257.446159 107.433222 
L 258.746077 108.572127 
L 260.370975 110.306989 
L 262.320852 112.787735 
L 264.595708 116.119189 
L 267.520524 120.843928 
L 273.045176 129.855142 
L 275.320033 133.115557 
L 277.26991 135.514995 
L 278.894808 137.169867 
L 280.519705 138.467435 
L 281.819623 139.226399 
L 283.119541 139.724021 
L 284.419459 139.952437 
L 285.719378 139.908039 
L 287.019296 139.591527 
L 288.319214 139.007903 
L 289.619132 138.166389 
L 290.91905 137.080284 
L 292.543948 135.405189 
L 294.168845 133.416329 
L 296.118722 130.685092 
L 298.718559 126.620152 
L 306.518067 114.024485 
L 308.467944 111.373878 
L 310.092842 109.468238 
L 311.71774 107.888762 
L 313.017658 106.886505 
L 314.317576 106.133945 
L 315.617494 105.642975 
L 316.917412 105.421353 
L 318.21733 105.472581 
L 319.517248 105.795849 
L 320.817166 106.38605 
L 322.117084 107.233857 
L 323.417002 108.325872 
L 325.0419 110.007676 
L 326.666798 112.002334 
L 328.616675 114.73913 
L 331.216511 118.808794 
L 339.01602 131.398501 
L 340.965897 134.04315 
L 342.590794 135.942703 
L 344.215692 137.515229 
L 345.51561 138.511421 
L 346.815528 139.257569 
L 348.115446 139.741883 
L 349.415364 139.956708 
L 350.715283 139.898651 
L 352.015201 139.56863 
L 353.315119 138.971858 
L 354.615037 138.117766 
L 355.914955 137.019851 
L 357.539853 135.331356 
L 359.16475 133.330918 
L 361.114627 130.588592 
L 363.714464 126.514244 
L 371.513972 113.930621 
L 373.463849 111.291955 
L 375.088747 109.398509 
L 376.713645 107.832948 
L 378.013563 106.842832 
L 379.313481 106.103102 
L 380.613399 105.62545 
L 381.913317 105.417423 
L 383.213235 105.482308 
L 384.513153 105.81908 
L 385.813071 106.422418 
L 387.112989 107.282786 
L 388.412907 108.38659 
L 390.037805 110.081759 
L 391.662703 112.087956 
L 393.61258 114.835787 
L 396.212416 118.914778 
L 398.487273 122.688005 
L 398.487273 122.688005 
" style="fill:none;stroke:#0000ff;stroke-linecap:square;stroke-width:0.5;"/>
   </g>
   <g id="line2d_10">
    <path clip-path="url(#pdac9c213c4)" d="M 73.832727 139.968007 
L 75.132645 139.831477 
L 76.432563 139.424042 
L 77.732482 138.752143 
L 79.0324 137.826396 
L 80.657297 136.334888 
L 82.282195 134.506677 
L 84.232072 131.932407 
L 86.506929 128.521453 
L 90.081704 122.660835 
L 94.306437 115.793884 
L 96.581294 112.500326 
L 98.531171 110.063191 
L 100.156069 108.371357 
L 101.780966 107.032752 
L 103.080885 106.2387 
L 104.380803 105.704583 
L 105.680721 105.43884 
L 106.980639 105.445671 
L 108.280557 105.724968 
L 109.580475 106.272317 
L 110.880393 107.07907 
L 112.180311 108.132477 
L 113.805209 109.770384 
L 115.430106 111.727001 
L 117.379984 114.427185 
L 119.97982 118.465427 
L 128.429287 132.024045 
L 130.379165 134.58573 
L 132.004062 136.401287 
L 133.62896 137.878502 
L 134.928878 138.791872 
L 136.228796 139.450766 
L 137.528714 139.844772 
L 138.828632 139.967665 
L 140.12855 139.817503 
L 141.428468 139.396657 
L 142.728387 138.711779 
L 144.028305 137.773691 
L 145.653202 136.26795 
L 147.2781 134.427157 
L 149.227977 131.840402 
L 151.502834 128.419036 
L 155.077609 122.552154 
L 159.302342 115.694363 
L 161.577199 112.412743 
L 163.527076 109.989233 
L 165.151974 108.310782 
L 166.776871 106.987053 
L 168.07679 106.205734 
L 169.376708 105.68487 
L 170.676626 105.432691 
L 171.976544 105.453184 
L 173.276462 105.746024 
L 174.57638 106.306584 
L 175.876298 107.126005 
L 177.176216 108.191339 
L 178.801114 109.842826 
L 180.426011 111.811237 
L 182.375889 114.522806 
L 184.975725 118.570897 
L 193.100213 131.655312 
L 195.05009 134.266728 
L 196.674988 136.132465 
L 198.299885 137.666493 
L 199.599803 138.629151 
L 200.899722 139.339904 
L 202.19964 139.787522 
L 203.499558 139.964931 
L 204.799476 139.869328 
L 206.099394 139.502222 
L 207.399312 138.869416 
L 208.69923 137.98091 
L 209.999148 136.850742 
L 211.624046 135.125746 
L 213.573923 132.654972 
L 215.84878 129.332141 
L 218.773595 124.613109 
L 224.298247 115.595119 
L 226.573104 112.325567 
L 228.522981 109.915777 
L 230.147879 108.250775 
L 231.772776 106.941976 
L 233.072695 106.173419 
L 234.372613 105.665829 
L 235.672531 105.427225 
L 236.972449 105.461379 
L 238.272367 105.76775 
L 239.572285 106.341498 
L 240.872203 107.173556 
L 242.172121 108.250775 
L 243.797019 109.915777 
L 245.421916 111.895902 
L 247.371794 114.618751 
L 249.97163 118.67653 
L 258.096118 131.748036 
L 260.045995 134.347173 
L 261.670893 136.200474 
L 263.29579 137.720389 
L 264.595708 138.670781 
L 265.895627 139.368611 
L 267.195545 139.802851 
L 268.495463 139.96664 
L 269.795381 139.85739 
L 271.095299 139.476826 
L 272.395217 138.830963 
L 273.695135 137.930007 
L 274.995053 136.788195 
L 276.619951 135.050052 
L 278.569828 132.565994 
L 280.844685 129.231683 
L 283.7695 124.505066 
L 289.294152 115.496155 
L 291.569009 112.238801 
L 293.518886 109.842826 
L 295.143784 108.191339 
L 296.443702 107.126005 
L 297.74362 106.306584 
L 299.043538 105.746024 
L 300.343456 105.453184 
L 301.643374 105.432691 
L 302.943292 105.68487 
L 304.24321 106.205734 
L 305.543129 106.987053 
L 306.843047 108.016481 
L 308.467944 109.627034 
L 310.092842 111.559834 
L 312.042719 114.236926 
L 314.642555 118.254991 
L 323.417002 132.29673 
L 325.36688 134.820051 
L 326.991777 136.597217 
L 328.616675 138.031207 
L 329.916593 138.907229 
L 331.216511 139.526953 
L 332.516429 139.880586 
L 333.816347 139.962539 
L 335.116265 139.771517 
L 336.416183 139.310539 
L 337.716102 138.58689 
L 339.01602 137.612004 
L 340.640917 136.063923 
L 342.265815 134.185824 
L 344.215692 131.562232 
L 346.490549 128.110442 
L 350.390303 121.683263 
L 353.965078 115.893677 
L 356.239934 112.588312 
L 358.189812 110.137649 
L 359.814709 108.432499 
L 361.439607 107.07907 
L 362.739525 106.272317 
L 364.039443 105.724968 
L 365.339361 105.445671 
L 366.639279 105.43884 
L 367.939197 105.704583 
L 369.239115 106.2387 
L 370.539034 107.032752 
L 371.838952 108.07419 
L 373.463849 109.698452 
L 375.088747 111.643199 
L 377.038624 114.33189 
L 379.63846 118.360123 
L 388.087928 131.932407 
L 390.037805 134.506677 
L 391.662703 136.334888 
L 393.2876 137.826396 
L 394.587518 138.752143 
L 395.887437 139.424042 
L 397.187355 139.831477 
L 398.487273 139.968007 
L 398.487273 139.968007 
" style="fill:none;stroke:#0000ff;stroke-linecap:square;stroke-width:0.5;"/>
   </g>
   <g id="line2d_11">
    <path clip-path="url(#pdac9c213c4)" d="M 73.832727 70.848001 
L 78.057461 63.978802 
L 80.332318 60.68228 
L 82.282195 58.241754 
L 83.907093 56.546585 
L 85.53199 55.204268 
L 86.831908 54.407039 
L 88.131826 53.869611 
L 89.431744 53.600479 
L 90.731663 53.603895 
L 92.031581 53.879804 
L 93.331499 54.423847 
L 94.631417 55.227427 
L 95.931335 56.277846 
L 97.556233 57.912348 
L 99.18113 59.866005 
L 101.131007 62.563326 
L 103.730844 66.59908 
L 112.180311 80.161165 
L 114.130188 82.726006 
L 115.755086 84.544733 
L 117.379984 86.025527 
L 118.679902 86.941994 
L 119.97982 87.604142 
L 121.279738 88.001507 
L 122.579656 88.12781 
L 123.879574 87.981055 
L 125.179492 87.563561 
L 126.47941 86.881925 
L 127.779328 85.946918 
L 129.404226 84.44473 
L 131.029124 82.607076 
L 132.979001 80.023433 
L 135.253857 76.604657 
L 138.828632 70.739319 
L 143.053366 63.879212 
L 145.328223 60.594596 
L 147.2781 58.167671 
L 148.902998 56.485868 
L 150.527895 55.158415 
L 151.827813 54.37391 
L 153.127731 53.84973 
L 154.427649 53.59416 
L 155.727568 53.611237 
L 157.027486 53.900692 
L 158.327404 54.457951 
L 159.627322 55.274208 
L 160.92724 56.336565 
L 162.552138 57.984663 
L 164.177035 59.950133 
L 166.126912 62.658866 
L 168.726749 66.704509 
L 176.851237 79.79207 
L 178.801114 82.40654 
L 180.426011 84.275374 
L 182.050909 85.812921 
L 183.350827 86.77864 
L 184.650745 87.49262 
L 185.950663 87.94358 
L 187.250581 88.124392 
L 188.5505 88.032201 
L 189.850418 87.668463 
L 191.150336 87.038925 
L 192.450254 86.153536 
L 193.750172 85.026287 
L 195.37507 83.304587 
L 197.324947 80.837151 
L 199.599803 77.51721 
L 202.524619 72.800103 
L 208.049271 63.779899 
L 210.324128 60.507318 
L 212.274005 58.094089 
L 213.898903 56.425718 
L 215.5238 55.113182 
L 216.823718 54.341432 
L 218.123636 53.830521 
L 219.423554 53.588523 
L 220.723473 53.619262 
L 222.023391 53.922251 
L 223.323309 54.492704 
L 224.623227 55.321606 
L 225.923145 56.395857 
L 227.548043 58.057487 
L 229.17294 60.034691 
L 231.122817 62.75473 
L 233.722654 66.810102 
L 241.847142 79.884884 
L 243.797019 82.4871 
L 245.421916 84.343517 
L 247.046814 85.866966 
L 248.346732 86.820428 
L 249.64665 87.521491 
L 250.946568 87.959077 
L 252.246486 88.126272 
L 253.546405 88.020433 
L 254.846323 87.643233 
L 256.146241 87.000632 
L 257.446159 86.102785 
L 258.746077 84.963879 
L 260.370975 83.229017 
L 262.320852 80.748271 
L 264.595708 77.416817 
L 267.520524 72.692079 
L 273.045176 63.680865 
L 275.320033 60.420449 
L 277.26991 58.021012 
L 278.894808 56.366139 
L 280.519705 55.068572 
L 281.819623 54.309607 
L 283.119541 53.811985 
L 284.419459 53.583569 
L 285.719378 53.627968 
L 287.019296 53.94448 
L 288.319214 54.528104 
L 289.619132 55.369617 
L 290.91905 56.455722 
L 292.543948 58.130817 
L 294.168845 60.119677 
L 296.118722 62.850914 
L 298.718559 66.915854 
L 306.518067 79.511521 
L 308.467944 82.162128 
L 310.092842 84.067769 
L 311.71774 85.647244 
L 313.017658 86.649501 
L 314.317576 87.402061 
L 315.617494 87.893031 
L 316.917412 88.114653 
L 318.21733 88.063425 
L 319.517248 87.740157 
L 320.817166 87.149956 
L 322.117084 86.302149 
L 323.417002 85.210134 
L 325.0419 83.528331 
L 326.666798 81.533672 
L 328.616675 78.796876 
L 331.216511 74.727213 
L 339.01602 62.137505 
L 340.965897 59.492856 
L 342.590794 57.593303 
L 344.215692 56.020777 
L 345.51561 55.024585 
L 346.815528 54.278437 
L 348.115446 53.794124 
L 349.415364 53.579298 
L 350.715283 53.637355 
L 352.015201 53.967377 
L 353.315119 54.564149 
L 354.615037 55.41824 
L 355.914955 56.516156 
L 357.539853 58.20465 
L 359.16475 60.205088 
L 361.114627 62.947415 
L 363.714464 67.021762 
L 371.513972 79.605385 
L 373.463849 82.244051 
L 375.088747 84.137497 
L 376.713645 85.703058 
L 378.013563 86.693175 
L 379.313481 87.432904 
L 380.613399 87.910556 
L 381.913317 88.118583 
L 383.213235 88.053698 
L 384.513153 87.716926 
L 385.813071 87.113589 
L 387.112989 86.25322 
L 388.412907 85.149416 
L 390.037805 83.454247 
L 391.662703 81.44805 
L 393.61258 78.700219 
L 396.212416 74.621228 
L 398.487273 70.848001 
L 398.487273 70.848001 
" style="fill:none;stroke:#0000ff;stroke-linecap:square;stroke-width:0.5;"/>
   </g>
   <g id="line2d_12">
    <path clip-path="url(#pdac9c213c4)" d="M 73.832727 54.413743 
L 75.132645 53.873668 
L 76.432563 53.601825 
L 77.732482 53.602508 
L 79.0324 53.875707 
L 80.332318 54.417104 
L 81.632236 55.218145 
L 82.932154 56.266171 
L 84.557052 57.897946 
L 86.181949 59.849232 
L 88.131826 62.544257 
L 90.731663 66.578014 
L 99.18113 80.142848 
L 101.131007 82.710209 
L 102.755905 84.531469 
L 104.380803 86.015124 
L 105.680721 86.934068 
L 106.980639 87.598818 
L 108.280557 87.998868 
L 109.580475 88.127899 
L 110.880393 87.98387 
L 112.180311 87.569057 
L 113.480229 86.890016 
L 114.780147 85.957477 
L 116.405045 84.458134 
L 118.029943 82.622994 
L 119.97982 80.041845 
L 122.254676 76.625147 
L 125.829451 70.761055 
L 130.054185 63.899108 
L 132.329042 60.612101 
L 134.278919 58.182447 
L 135.903817 56.497966 
L 137.528714 55.167536 
L 138.828632 54.380483 
L 140.12855 53.853653 
L 141.428468 53.595369 
L 142.728387 53.609714 
L 144.028305 53.896461 
L 145.328223 54.451079 
L 146.628141 55.264803 
L 147.928059 56.324775 
L 149.552957 57.970159 
L 151.177854 59.933273 
L 153.127731 62.639732 
L 155.727568 66.68341 
L 163.852056 79.773465 
L 165.801933 82.390373 
L 167.42683 84.261682 
L 169.051728 85.802041 
L 170.351646 86.770206 
L 171.651564 87.486767 
L 172.951482 87.940399 
L 174.2514 88.123934 
L 175.551319 88.034473 
L 176.851237 87.673429 
L 178.151155 87.046507 
L 179.451073 86.163614 
L 180.750991 85.038701 
L 182.375889 83.319642 
L 184.325766 80.854879 
L 186.600622 77.537257 
L 189.525438 72.821699 
L 195.05009 63.799739 
L 197.324947 60.524741 
L 199.274824 58.108765 
L 200.899722 56.437703 
L 202.524619 55.122179 
L 203.824537 54.347875 
L 205.124455 53.834309 
L 206.424373 53.589596 
L 207.724292 53.617602 
L 209.02421 53.917886 
L 210.324128 54.485702 
L 211.624046 55.312077 
L 212.923964 56.383953 
L 214.548862 58.042882 
L 216.173759 60.017745 
L 218.123636 62.735531 
L 220.723473 66.78897 
L 228.847961 79.866349 
L 230.797838 82.471025 
L 232.422735 84.329931 
L 234.047633 85.856204 
L 235.347551 86.812121 
L 236.647469 87.51577 
L 237.947387 87.956032 
L 239.247305 88.125951 
L 240.547224 88.022841 
L 241.847142 87.648332 
L 243.14706 87.008342 
L 244.446978 86.112983 
L 245.746896 84.976405 
L 247.371794 83.24417 
L 249.321671 80.766078 
L 251.596527 77.436916 
L 254.521343 72.71369 
L 260.045995 63.700649 
L 262.320852 60.43779 
L 264.270729 58.035587 
L 265.895627 56.378009 
L 267.520524 55.077444 
L 268.820442 54.31592 
L 270.12036 53.815639 
L 271.420278 53.584505 
L 272.720197 53.626172 
L 274.020115 53.93998 
L 275.320033 54.520972 
L 276.619951 55.359966 
L 277.919869 56.443703 
L 279.544767 58.116111 
L 281.169664 60.102646 
L 283.119541 62.831652 
L 285.719378 66.894691 
L 293.843866 79.958877 
L 295.793743 82.551217 
L 297.41864 84.397648 
L 299.043538 85.909774 
L 300.343456 86.853403 
L 301.643374 87.544113 
L 302.943292 87.970988 
L 304.24321 88.127284 
L 305.543129 88.010529 
L 306.843047 87.62257 
L 308.142965 86.969537 
L 309.442883 86.061749 
L 310.742801 84.913551 
L 312.367699 83.168208 
L 314.317576 80.676885 
L 316.592432 77.336316 
L 319.842228 72.064234 
L 324.716921 64.098667 
L 326.991777 60.788031 
L 328.941654 58.331312 
L 330.566552 56.620193 
L 332.19145 55.260109 
L 333.491368 54.447652 
L 334.791286 53.894355 
L 336.091204 53.608963 
L 337.391122 53.595984 
L 338.69104 53.855624 
L 339.990958 54.38378 
L 341.290876 55.172106 
L 342.590794 56.208145 
L 344.215692 57.826246 
L 345.84059 59.765626 
L 347.790467 62.449111 
L 350.390303 66.472788 
L 358.839771 80.051045 
L 360.789648 82.630946 
L 362.414545 84.464828 
L 364.039443 85.962748 
L 365.339361 86.894053 
L 366.639279 87.571796 
L 367.939197 87.985267 
L 369.239115 88.127933 
L 370.539034 87.997539 
L 371.838952 87.596145 
L 373.13887 86.930095 
L 374.438788 86.009913 
L 375.738706 84.85014 
L 377.363604 83.091758 
L 379.313481 80.587303 
L 381.588337 77.235458 
L 384.838133 71.955798 
L 389.712826 63.998752 
L 391.987682 60.699865 
L 393.937559 58.256631 
L 395.562457 56.558797 
L 397.187355 55.213513 
L 398.487273 54.413743 
L 398.487273 54.413743 
" style="fill:none;stroke:#0000ff;stroke-linecap:square;stroke-width:0.5;"/>
   </g>
   <g id="line2d_13">
    <path clip-path="url(#pdac9c213c4)" d="M 73.832727 60.691071 
L 76.107584 63.988776 
L 79.0324 68.690869 
L 84.882031 78.222181 
L 87.156888 81.456631 
L 89.106765 83.826797 
L 90.731663 85.45311 
L 92.031581 86.496346 
L 93.331499 87.292305 
L 94.631417 87.828408 
L 95.931335 88.096185 
L 97.231253 88.091403 
L 98.531171 87.814139 
L 99.831089 87.268773 
L 101.131007 86.463924 
L 102.430925 85.412309 
L 104.055823 83.776445 
L 105.680721 81.821603 
L 107.630598 79.123136 
L 110.230434 75.086386 
L 118.679902 61.525684 
L 120.629779 58.962105 
L 122.254676 57.144645 
L 123.879574 55.665282 
L 125.179492 54.750053 
L 126.47941 54.089207 
L 127.779328 53.693185 
L 129.079247 53.568246 
L 130.379165 53.716364 
L 131.679083 54.135199 
L 132.979001 54.818132 
L 134.278919 55.754372 
L 135.903817 57.257981 
L 137.528714 59.096891 
L 139.478591 61.68178 
L 141.753448 65.101593 
L 145.328223 70.96755 
L 149.552957 77.826733 
L 151.827813 81.110151 
L 153.77769 83.535712 
L 155.402588 85.216174 
L 157.027486 86.542138 
L 158.327404 87.325369 
L 159.627322 87.848223 
L 160.92724 88.102436 
L 162.227158 88.083992 
L 163.527076 87.793183 
L 164.826994 87.234604 
L 166.126912 86.417081 
L 167.42683 85.353533 
L 169.051728 83.704079 
L 170.676626 81.737432 
L 172.626503 79.027564 
L 175.226339 74.980941 
L 183.350827 61.894634 
L 185.300704 59.281385 
L 186.925602 57.413789 
L 188.5505 55.877649 
L 189.850418 54.913155 
L 191.150336 54.200465 
L 192.450254 53.750842 
L 193.750172 53.57139 
L 195.05009 53.664946 
L 196.350008 54.030032 
L 197.649926 54.660877 
L 198.949844 55.547513 
L 200.249762 56.67593 
L 201.87466 58.398949 
L 203.824537 60.867721 
L 206.099394 64.188819 
L 209.02421 68.906697 
L 214.548862 77.926019 
L 216.823718 81.197389 
L 218.773595 83.609243 
L 220.398493 85.276267 
L 222.023391 86.587309 
L 223.323309 87.357781 
L 224.623227 87.867364 
L 225.923145 88.108005 
L 227.223063 88.0759 
L 228.522981 87.771557 
L 229.822899 87.199787 
L 231.122817 86.369622 
L 232.422735 85.294183 
L 234.047633 83.631204 
L 235.672531 81.652831 
L 237.622408 78.931667 
L 240.222244 74.875332 
L 248.346732 61.801856 
L 250.296609 59.200871 
L 251.921507 57.345699 
L 253.546405 55.823664 
L 254.846323 54.87143 
L 256.146241 54.17166 
L 257.446159 53.735411 
L 258.746077 53.569579 
L 260.045995 53.676783 
L 261.345913 54.055328 
L 262.645831 54.699234 
L 263.945749 55.598325 
L 265.245667 56.738394 
L 266.870565 58.474569 
L 268.820442 60.95664 
L 271.095299 64.289238 
L 274.020115 69.014729 
L 279.544767 78.025025 
L 281.819623 81.284217 
L 283.7695 83.68227 
L 285.394398 85.335788 
L 286.694316 86.402908 
L 287.994234 87.224227 
L 289.294152 87.786766 
L 290.59407 88.081636 
L 291.893989 88.104178 
L 293.193907 87.854036 
L 294.493825 87.335161 
L 295.793743 86.555754 
L 297.093661 85.528131 
L 298.718559 83.91964 
L 300.343456 81.988639 
L 302.293333 79.313296 
L 304.89317 75.29677 
L 313.667617 61.25283 
L 315.617494 58.72757 
L 317.242391 56.948469 
L 318.867289 55.512305 
L 320.167207 54.634408 
L 321.467125 54.01272 
L 322.767043 53.657066 
L 324.066962 53.573065 
L 325.36688 53.762045 
L 326.666798 54.22102 
L 327.966716 54.942737 
L 329.266634 55.915791 
L 330.891532 57.461768 
L 332.516429 59.338018 
L 334.466306 61.95979 
L 336.741163 65.410088 
L 340.640917 71.836468 
L 344.540672 78.123747 
L 346.815528 81.370632 
L 348.765405 83.754789 
L 350.390303 85.394737 
L 351.690221 86.449936 
L 352.990139 87.25859 
L 354.290057 87.807923 
L 355.589975 88.089252 
L 356.889894 88.098132 
L 358.189812 87.834423 
L 359.48973 87.302293 
L 360.789648 86.510149 
L 362.089566 85.47051 
L 363.714464 83.8483 
L 365.339361 81.905339 
L 367.289238 79.218382 
L 369.889075 75.191664 
L 378.338542 61.617377 
L 380.288419 59.041227 
L 381.913317 57.211124 
L 383.538215 55.717478 
L 384.838133 54.789877 
L 386.138051 54.116029 
L 387.437969 53.706583 
L 388.737887 53.568007 
L 390.037805 53.702492 
L 391.337723 54.107913 
L 392.637641 54.777863 
L 393.937559 55.701756 
L 395.562457 57.191124 
L 397.187355 59.017441 
L 398.487273 60.691071 
L 398.487273 60.691071 
" style="fill:none;stroke:#0000ff;stroke-linecap:square;stroke-width:0.5;"/>
   </g>
   <g id="line2d_14">
    <path clip-path="url(#pdac9c213c4)" d="M 73.832727 81.004931 
L 75.782604 83.446811 
L 77.407502 85.143313 
L 79.0324 86.487114 
L 80.332318 87.285614 
L 81.632236 87.824365 
L 82.932154 88.094853 
L 84.232072 88.092804 
L 85.53199 87.818249 
L 86.831908 87.275529 
L 88.131826 86.473218 
L 89.431744 85.423996 
L 91.056642 83.790857 
L 92.68154 81.838385 
L 94.631417 79.142212 
L 97.231253 75.107455 
L 105.680721 61.543993 
L 107.630598 58.977892 
L 109.255495 57.157898 
L 110.880393 55.675673 
L 112.180311 54.757967 
L 113.480229 54.094518 
L 114.780147 53.69581 
L 116.080066 53.568144 
L 117.379984 53.713536 
L 118.679902 54.129689 
L 119.97982 54.810028 
L 121.279738 55.743801 
L 122.904636 57.244567 
L 124.529533 59.080964 
L 126.47941 61.663361 
L 128.754267 65.081098 
L 132.329042 70.945814 
L 136.553776 77.806842 
L 138.828632 81.092655 
L 140.778509 83.520945 
L 142.403407 85.204088 
L 144.028305 86.533029 
L 145.328223 87.318808 
L 146.628141 87.844313 
L 147.928059 88.10124 
L 149.227977 88.085529 
L 150.527895 87.797428 
L 151.827813 87.24149 
L 153.127731 86.426499 
L 154.427649 85.365334 
L 156.052547 83.718593 
L 157.677445 81.754301 
L 159.627322 79.046704 
L 162.227158 75.002043 
L 170.351646 61.913232 
L 172.301523 59.297543 
L 173.926421 57.427471 
L 175.551319 55.888517 
L 176.851237 54.921575 
L 178.151155 54.206305 
L 179.451073 53.754009 
L 180.750991 53.571835 
L 182.050909 53.662661 
L 183.350827 54.025052 
L 184.650745 54.653282 
L 185.950663 55.537424 
L 187.250581 56.663505 
L 188.875479 58.383884 
L 190.825356 60.849984 
L 193.100213 64.168767 
L 196.025029 68.8851 
L 201.549681 77.906184 
L 203.824537 81.179974 
L 205.774414 83.594577 
L 207.399312 85.264294 
L 209.02421 86.578324 
L 210.324128 87.351351 
L 211.624046 87.86359 
L 212.923964 88.106945 
L 214.223882 88.077573 
L 215.5238 87.775936 
L 216.823718 87.206802 
L 218.123636 86.379163 
L 219.423554 85.306099 
L 221.048452 83.64582 
L 222.67335 81.669786 
L 224.623227 78.950872 
L 227.223063 74.896466 
L 235.347551 61.820383 
L 237.297428 59.216937 
L 238.922326 57.359275 
L 240.547224 55.834413 
L 241.847142 54.879724 
L 243.14706 54.177368 
L 244.446978 53.738443 
L 245.746896 53.569887 
L 247.046814 53.674361 
L 248.346732 54.050216 
L 249.64665 54.691512 
L 250.946568 55.588115 
L 252.246486 56.725856 
L 253.871384 58.459405 
L 255.821261 60.938825 
L 258.096118 64.269133 
L 261.020934 68.993117 
L 266.545586 78.005246 
L 268.820442 81.266884 
L 270.770319 83.667705 
L 272.395217 85.32393 
L 274.020115 86.622997 
L 275.320033 87.383241 
L 276.619951 87.882193 
L 277.919869 88.111968 
L 279.219787 88.068935 
L 280.519705 87.753775 
L 281.819623 87.171467 
L 283.119541 86.331213 
L 284.419459 85.246292 
L 286.044357 83.57254 
L 287.669255 81.584842 
L 289.619132 78.85472 
L 292.218968 74.79073 
L 300.343456 61.727891 
L 302.293333 59.136791 
L 303.918231 57.291612 
L 305.543129 55.780903 
L 306.843047 54.838505 
L 308.142965 54.14909 
L 309.442883 53.723555 
L 310.742801 53.568622 
L 312.042719 53.686741 
L 313.342637 54.076044 
L 314.642555 54.73038 
L 315.942473 55.639409 
L 317.242391 56.788766 
L 318.867289 58.535417 
L 320.817166 61.028057 
L 323.092023 64.36976 
L 326.341818 69.642609 
L 331.216511 77.607338 
L 333.491368 80.916805 
L 335.441245 83.37218 
L 337.066143 85.081974 
L 338.69104 86.440579 
L 339.990958 87.25177 
L 341.290876 87.803745 
L 342.590794 88.087783 
L 343.890713 88.099396 
L 345.190631 87.838399 
L 346.490549 87.308918 
L 347.790467 86.51932 
L 349.090385 85.48208 
L 350.715283 83.862609 
L 352.34018 81.922034 
L 354.290057 79.237391 
L 356.889894 75.212699 
L 365.339361 61.63576 
L 367.289238 59.057108 
L 368.914136 57.224485 
L 370.539034 55.727989 
L 371.838952 54.797918 
L 373.13887 54.121473 
L 374.438788 53.709343 
L 375.738706 53.568041 
L 377.038624 53.699799 
L 378.338542 54.102535 
L 379.63846 54.769886 
L 380.938378 55.691305 
L 382.238296 56.852233 
L 383.863194 58.611915 
L 385.813071 61.117678 
L 388.087928 64.470643 
L 391.337723 69.751049 
L 396.212416 77.707226 
L 398.487273 81.004931 
L 398.487273 81.004931 
" style="fill:none;stroke:#0000ff;stroke-linecap:square;stroke-width:0.5;"/>
   </g>
   <g id="line2d_15">
    <path clip-path="url(#pdac9c213c4)" d="M 73.832727 87.282259 
L 75.132645 86.482488 
L 76.432563 85.435659 
L 78.057461 83.805248 
L 79.682359 81.85515 
L 81.632236 79.161274 
L 84.232072 75.128517 
L 92.68154 61.562317 
L 94.631417 58.993697 
L 96.256314 57.171172 
L 97.881212 55.686088 
L 99.18113 54.765907 
L 100.481048 54.099856 
L 101.780966 53.698463 
L 103.080885 53.568068 
L 104.380803 53.710734 
L 105.680721 54.124205 
L 106.980639 54.801949 
L 108.280557 55.733254 
L 109.905455 57.231174 
L 111.530352 59.065055 
L 113.480229 61.644957 
L 115.755086 65.060613 
L 119.329861 70.924078 
L 123.554595 77.786941 
L 125.829451 81.075143 
L 127.779328 83.506158 
L 129.404226 85.191978 
L 131.029124 86.523896 
L 132.329042 87.312222 
L 133.62896 87.840378 
L 134.928878 88.100018 
L 136.228796 88.087039 
L 137.528714 87.801646 
L 138.828632 87.248349 
L 140.12855 86.435892 
L 141.428468 85.377113 
L 143.053366 83.733086 
L 144.678264 81.771152 
L 146.628141 79.065832 
L 149.227977 75.023139 
L 157.677445 61.470844 
L 159.627322 58.914856 
L 161.252219 57.105017 
L 162.877117 55.634252 
L 164.177035 54.726464 
L 165.476953 54.073431 
L 166.776871 53.685472 
L 168.07679 53.568718 
L 169.376708 53.725013 
L 170.676626 54.151888 
L 171.976544 54.842598 
L 173.276462 55.786228 
L 174.90136 57.298354 
L 176.526257 59.144785 
L 178.476134 61.737124 
L 180.750991 65.163132 
L 184.325766 71.032757 
L 188.5505 77.886338 
L 190.825356 81.162543 
L 192.775233 83.579891 
L 194.400131 85.252298 
L 196.025029 86.569315 
L 197.324947 87.344895 
L 198.624865 87.859788 
L 199.924783 88.105859 
L 201.224701 88.079219 
L 202.524619 87.780288 
L 203.824537 87.213791 
L 205.124455 86.38868 
L 206.424373 85.317992 
L 208.049271 83.660415 
L 209.674169 81.686723 
L 211.624046 78.970065 
L 214.223882 74.917595 
L 222.34837 61.838924 
L 224.298247 59.233021 
L 225.923145 57.372871 
L 227.548043 55.845187 
L 228.847961 54.888044 
L 230.147879 54.183103 
L 231.447797 53.741502 
L 232.747715 53.570222 
L 234.047633 53.671967 
L 235.347551 54.04513 
L 236.647469 54.683815 
L 237.947387 55.577928 
L 239.247305 56.713341 
L 240.872203 58.444262 
L 242.82208 60.921025 
L 245.096937 64.249039 
L 248.021753 68.971508 
L 253.546405 77.985456 
L 255.821261 81.249535 
L 257.771138 83.65312 
L 259.396036 85.312048 
L 261.020934 86.614112 
L 262.320852 87.376915 
L 263.62077 87.878526 
L 264.920688 88.111018 
L 266.220606 88.070717 
L 267.520524 87.758261 
L 268.820442 87.178586 
L 270.12036 86.340852 
L 271.420278 85.258299 
L 273.045176 83.587236 
L 274.670074 81.601865 
L 276.619951 78.873976 
L 279.219787 74.81189 
L 287.344275 61.746361 
L 289.294152 59.152783 
L 290.91905 57.305101 
L 292.543948 55.791558 
L 293.843866 54.846698 
L 295.143784 54.154693 
L 296.443702 53.726478 
L 297.74362 53.56882 
L 299.043538 53.68421 
L 300.343456 54.070825 
L 301.643374 54.722555 
L 302.943292 55.629102 
L 304.24321 56.77614 
L 305.868108 58.520176 
L 307.817985 61.01018 
L 310.092842 64.349614 
L 313.342637 69.620926 
L 318.21733 77.587328 
L 320.492187 80.899132 
L 322.442064 83.357194 
L 324.066962 85.069638 
L 325.691859 86.431199 
L 326.991777 87.244923 
L 328.291695 87.79954 
L 329.591613 88.086287 
L 330.891532 88.100632 
L 332.19145 87.842349 
L 333.491368 87.315518 
L 334.791286 86.528465 
L 336.091204 85.493628 
L 337.716102 83.876898 
L 339.340999 81.938712 
L 341.290876 79.256387 
L 343.890713 75.233727 
L 352.34018 61.654157 
L 354.290057 59.073007 
L 355.914955 57.237867 
L 357.539853 55.738524 
L 358.839771 54.805985 
L 360.139689 54.126944 
L 361.439607 53.712132 
L 362.739525 53.568103 
L 364.039443 53.697133 
L 365.339361 54.097184 
L 366.639279 54.761934 
L 367.939197 55.680878 
L 369.239115 56.839495 
L 370.864013 58.596577 
L 372.81389 61.099723 
L 375.088747 64.450446 
L 378.338542 69.729358 
L 383.213235 77.68727 
L 385.488092 80.987338 
L 387.437969 83.431925 
L 389.062867 85.131091 
L 390.687764 86.477856 
L 391.987682 87.278897 
L 393.2876 87.820295 
L 394.587518 88.093494 
L 395.887437 88.094177 
L 397.187355 87.822333 
L 398.487273 87.282259 
L 398.487273 87.282259 
" style="fill:none;stroke:#0000ff;stroke-linecap:square;stroke-width:0.5;"/>
   </g>
  </g>
 </g>
 <defs>
  <clipPath id="pdac9c213c4">
   <rect height="266.112" width="357.12" x="57.6" y="41.472"/>
  </clipPath>
 </defs>
</svg>
